<svg width="17" height="13" viewBox="0 0 17 13" fill="none" xmlns="http://www.w3.org/2000/svg">
<path fill-rule="evenodd" clip-rule="evenodd" d="M8.22847 7.78319L7.11807 4.49999C7.02318 4.25718 6.93515 4.01175 6.85407 3.76399C6.75424 3.46041 6.66089 3.15474 6.57407 2.84719C6.43648 3.41523 6.26061 3.9733 6.04767 4.51759L4.94527 7.78319H8.22847ZM12.6477 12.3672H10.4909C10.2828 12.3769 10.0774 12.3172 9.90687 12.1976C9.75938 12.0851 9.6436 11.9362 9.57087 11.7656L8.86207 9.67599H4.30207L3.59647 11.7656C3.52696 11.931 3.41422 12.0747 3.27007 12.1816C3.10411 12.3083 2.89954 12.3738 2.69087 12.3672H0.518066L5.15807 0.378391H8.00607L12.6461 12.3672H12.6477ZM15.9053 3.83439V12.3672H13.3549V3.83439H15.9053ZM16.1693 1.49839C16.1704 1.69551 16.1284 1.89048 16.0461 2.06959C15.9649 2.24621 15.8502 2.40541 15.7085 2.53839C15.5645 2.67279 15.3997 2.77839 15.2109 2.85839C15.0225 2.93686 14.8205 2.97726 14.6165 2.97726C14.4124 2.97726 14.2104 2.93686 14.0221 2.85839C13.8439 2.78106 13.6808 2.67271 13.5405 2.53839C13.4011 2.40506 13.2892 2.24582 13.2109 2.06959C13.1307 1.8873 13.0893 1.69033 13.0893 1.49119C13.0893 1.29205 13.1307 1.09508 13.2109 0.912792C13.3672 0.551352 13.6582 0.264993 14.0221 0.114391C14.3044 0.00123358 14.6132 -0.0287651 14.912 0.0279382C15.2109 0.0846416 15.4872 0.225678 15.7085 0.434391C15.8509 0.571991 15.9645 0.731992 16.0445 0.912792C16.1277 1.09617 16.1703 1.2954 16.1693 1.49679V1.49839Z" fill="#FF7500"/>
</svg>
