<svg width="13" height="17" viewBox="0 0 13 17" fill="none" xmlns="http://www.w3.org/2000/svg">
<g clip-path="url(#clip0_160:15957)">
<path fill-rule="evenodd" clip-rule="evenodd" d="M2.4854 4.61871C2.32745 4.60868 2.17917 4.5391 2.07051 4.42402C1.96185 4.30893 1.90088 4.15692 1.89992 3.99865C1.89992 3.24785 3.68706 2.69306 5.71994 2.69306C5.90526 2.69306 6.02802 2.69306 6.02802 2.52969C6.02802 2.23617 5.41224 2.13827 5.41224 1.64874C5.41224 1.1262 5.99733 0.800049 6.73686 0.800049C7.47638 0.800049 8.06148 1.1262 8.06148 1.64874C8.06148 2.13827 7.4453 2.20354 7.4453 2.52969C7.4453 2.62682 7.53796 2.69306 7.75339 2.69306C9.78685 2.69306 11.6047 3.21522 11.6047 3.99865C11.6091 4.15836 11.55 4.3133 11.4404 4.42953C11.3307 4.54575 11.1795 4.61378 11.0198 4.61871H2.4854ZM11.6968 7.58847C12.0392 7.82931 12.3053 8.16328 12.4637 8.55079C12.6221 8.93829 12.666 9.36308 12.5903 9.7748L11.728 14.7028C11.6539 15.168 11.4191 15.5925 11.0645 15.9026C10.7098 16.2126 10.2578 16.3886 9.78685 16.3999H3.74864C3.27774 16.3887 2.82566 16.2127 2.47106 15.9027C2.11646 15.5926 1.88178 15.168 1.80784 14.7028L0.944962 9.77461C0.878463 9.3649 0.930086 8.94472 1.09378 8.5633C1.25747 8.18187 1.52645 7.85497 1.86923 7.6209C2.30067 7.29436 2.39372 6.73958 1.86923 6.54358C1.1297 6.25006 1.28375 5.30345 2.02327 5.30345H6.52143C7.22968 5.30345 8.09256 5.85883 8.09256 7.65394C8.09256 9.44904 7.29106 9.28567 7.29106 10.5584C7.29106 11.1132 7.72251 11.7006 8.2466 11.7659C9.14017 11.863 9.66466 11.5046 9.66466 10.1991C9.66466 8.86142 8.92514 8.24116 8.92514 7.13119C8.92514 5.79355 9.72605 5.2714 10.2498 5.2714H11.5435C12.283 5.2714 12.4371 6.21762 11.6975 6.51114C11.1731 6.73978 11.2657 7.29456 11.6968 7.58847Z" fill="#16A5F3"/>
</g>
<defs>
<clipPath id="clip0_160:15957">
<rect width="11.7001" height="15.6" fill="white" transform="translate(0.917969 0.800049)"/>
</clipPath>
</defs>
</svg>
