<svg width="108" height="24" viewBox="0 0 108 24" fill="none" xmlns="http://www.w3.org/2000/svg">
<path d="M37.818 19H38.916V5.698H37.818V19ZM46.4354 19.216C47.3714 19.216 48.2354 19 49.0274 18.55C49.8194 18.1 50.4134 17.506 50.7914 16.768L49.9094 16.228C49.2794 17.398 47.8934 18.226 46.4354 18.226C45.3194 18.226 44.4014 17.848 43.6814 17.092C42.9614 16.336 42.6014 15.364 42.6014 14.194C42.6014 13.006 42.9794 12.034 43.7174 11.278C44.4554 10.504 45.4094 10.126 46.5434 10.126C48.0014 10.126 49.3154 10.9 49.9634 12.124L50.8454 11.62C50.1074 10.09 48.4334 9.136 46.5434 9.136C45.0854 9.136 43.8794 9.604 42.9254 10.558C41.9894 11.512 41.5214 12.718 41.5214 14.194C41.5214 15.652 41.9894 16.858 42.9074 17.812C43.8254 18.748 45.0134 19.216 46.4354 19.216ZM52.2084 14.176C52.2084 15.598 52.6764 16.804 53.6304 17.776C54.5844 18.748 55.7724 19.234 57.2124 19.234C58.6524 19.234 59.8404 18.748 60.7944 17.776C61.7484 16.804 62.2164 15.598 62.2164 14.176C62.2164 12.754 61.7484 11.566 60.7944 10.594C59.8404 9.622 58.6524 9.136 57.2124 9.136C55.7724 9.136 54.5844 9.622 53.6304 10.594C52.6764 11.566 52.2084 12.754 52.2084 14.176ZM57.2124 18.244C56.0964 18.244 55.1604 17.848 54.4044 17.074C53.6664 16.282 53.2884 15.31 53.2884 14.176C53.2884 13.042 53.6664 12.088 54.4044 11.314C55.1604 10.522 56.0964 10.126 57.2124 10.126C58.3464 10.126 59.2824 10.522 60.0204 11.296C60.7584 12.07 61.1364 13.042 61.1364 14.176C61.1364 15.31 60.7584 16.282 60.0204 17.074C59.2824 17.848 58.3464 18.244 57.2124 18.244ZM65.5732 19V13.6C65.5732 12.448 65.8972 11.584 66.5272 11.008C67.1752 10.414 67.9132 10.126 68.7592 10.126C70.5412 10.126 71.6212 11.368 71.6212 13.384V19H72.7012V13.186C72.7012 11.89 72.3412 10.882 71.6032 10.18C70.8652 9.478 69.9652 9.118 68.8852 9.118C67.3192 9.118 66.1132 9.784 65.5372 11.062V9.37H64.4932V19H65.5732ZM79.4386 19.216C80.8966 19.216 82.0666 18.838 82.9666 18.082C83.8666 17.326 84.3166 16.354 84.3166 15.166C84.3166 13.69 83.5606 12.592 82.0486 11.854C81.7066 11.692 81.1666 11.458 80.4286 11.152L79.1146 10.576C78.3946 10.216 78.0346 9.784 78.0346 9.262C78.0346 8.488 78.6826 7.984 79.7446 7.984C80.7346 7.984 81.9226 8.434 82.6606 9.226L84.0826 7.282C82.8946 6.076 81.4366 5.482 79.7086 5.482C78.3766 5.482 77.2786 5.86 76.4326 6.598C75.5866 7.336 75.1726 8.254 75.1726 9.37C75.1726 10.774 75.8746 11.872 77.2786 12.682C77.6386 12.88 78.1606 13.132 78.8446 13.402C79.5466 13.672 79.9786 13.834 80.1586 13.924C80.9686 14.302 81.3646 14.77 81.3646 15.31C81.3646 16.156 80.5546 16.732 79.4566 16.732C78.0886 16.732 76.7926 16.084 75.9286 14.878L74.3986 16.732C75.4966 18.334 77.3686 19.216 79.4386 19.216ZM93.5947 10.36C92.7307 9.406 91.6867 8.938 90.4627 8.938C89.0767 8.938 87.9067 9.424 86.9887 10.396C86.0707 11.35 85.6027 12.574 85.6027 14.05C85.6027 15.526 86.0527 16.768 86.9707 17.758C87.8887 18.748 89.0587 19.234 90.4627 19.234C91.7047 19.234 92.7487 18.784 93.5947 17.866V19H96.0067V9.19H93.5947V10.36ZM93.6307 14.086C93.6307 14.878 93.3607 15.544 92.8387 16.102C92.3167 16.66 91.6687 16.93 90.8767 16.93C90.0847 16.93 89.4367 16.66 88.9147 16.102C88.3927 15.544 88.1407 14.878 88.1407 14.086C88.1407 13.312 88.3927 12.646 88.8967 12.088C89.4187 11.53 90.0667 11.26 90.8767 11.26C91.6687 11.26 92.3167 11.53 92.8387 12.088C93.3607 12.646 93.6307 13.312 93.6307 14.086ZM103.743 14.068L106.803 9.19H103.941L102.141 12.196L100.467 9.19H97.5687L100.467 13.996L97.2087 19H100.143L102.105 15.778L103.977 19H106.893L103.743 14.068Z" fill="#1E2945"/>
<path d="M21.8182 3.27271H17.7957L10.9079 13.602L4.02244 3.27271H0L10.9103 19.6363L21.8182 3.27271Z" fill="#1E2945"/>
<path d="M10.9103 21.4789L1.68087 7.63647H0L10.9079 24.0001L21.8182 7.63647H20.1373L10.9103 21.4789Z" fill="#1E2945"/>
<path d="M16.3637 0.31324L10.908 8.72727L5.45459 0.31324L9.46744 1.34213V0H12.3508V1.34213L16.3637 0.31324Z" fill="#195BFF"/>
</svg>
