<svg width="95" height="113" viewBox="0 0 95 113" fill="none" xmlns="http://www.w3.org/2000/svg">
<path d="M74.7274 8.21094H64.6377L47.3607 34.1202L30.0896 8.21094H20L47.3666 49.2565L74.7274 8.21094Z" fill="#1E2945"/>
<path d="M47.3666 53.8778L24.2162 19.1562H20L47.3607 60.2018L74.7274 19.1562H70.5112L47.3666 53.8778Z" fill="#1E2945"/>
<path d="M61.0456 0.785711L47.3609 21.8909L33.6819 0.785711L43.7475 3.36651V0H50.98V3.36651L61.0456 0.785711Z" fill="#195BFF"/>
<path d="M2.424 102H3.888V84.264H2.424V102ZM13.9138 102.288C15.1618 102.288 16.3138 102 17.3698 101.4C18.4258 100.8 19.2178 100.008 19.7218 99.024L18.5458 98.304C17.7058 99.864 15.8578 100.968 13.9138 100.968C12.4258 100.968 11.2018 100.464 10.2418 99.456C9.28181 98.448 8.80181 97.152 8.80181 95.592C8.80181 94.008 9.30581 92.712 10.2898 91.704C11.2738 90.672 12.5458 90.168 14.0578 90.168C16.0018 90.168 17.7538 91.2 18.6178 92.832L19.7938 92.16C18.8098 90.12 16.5778 88.848 14.0578 88.848C12.1138 88.848 10.5058 89.472 9.23381 90.744C7.98581 92.016 7.36181 93.624 7.36181 95.592C7.36181 97.536 7.98581 99.144 9.20981 100.416C10.4338 101.664 12.0178 102.288 13.9138 102.288ZM21.6113 95.568C21.6113 97.464 22.2353 99.072 23.5073 100.368C24.7793 101.664 26.3633 102.312 28.2833 102.312C30.2033 102.312 31.7873 101.664 33.0593 100.368C34.3313 99.072 34.9553 97.464 34.9553 95.568C34.9553 93.672 34.3313 92.088 33.0593 90.792C31.7873 89.496 30.2033 88.848 28.2833 88.848C26.3633 88.848 24.7793 89.496 23.5073 90.792C22.2353 92.088 21.6113 93.672 21.6113 95.568ZM28.2833 100.992C26.7953 100.992 25.5473 100.464 24.5393 99.432C23.5553 98.376 23.0513 97.08 23.0513 95.568C23.0513 94.056 23.5553 92.784 24.5393 91.752C25.5473 90.696 26.7953 90.168 28.2833 90.168C29.7953 90.168 31.0433 90.696 32.0273 91.728C33.0113 92.76 33.5153 94.056 33.5153 95.568C33.5153 97.08 33.0113 98.376 32.0273 99.432C31.0433 100.464 29.7953 100.992 28.2833 100.992ZM39.4309 102V94.8C39.4309 93.264 39.8629 92.112 40.7029 91.344C41.5669 90.552 42.5509 90.168 43.6789 90.168C46.0549 90.168 47.4949 91.824 47.4949 94.512V102H48.9349V94.248C48.9349 92.52 48.4549 91.176 47.4709 90.24C46.4869 89.304 45.2869 88.824 43.8469 88.824C41.7589 88.824 40.1509 89.712 39.3829 91.416V89.16H37.9909V102H39.4309ZM57.9182 102.288C59.8622 102.288 61.4222 101.784 62.6222 100.776C63.8222 99.768 64.4222 98.472 64.4222 96.888C64.4222 94.92 63.4142 93.456 61.3982 92.472C60.9422 92.256 60.2222 91.944 59.2382 91.536L57.4862 90.768C56.5262 90.288 56.0462 89.712 56.0462 89.016C56.0462 87.984 56.9102 87.312 58.3262 87.312C59.6462 87.312 61.2302 87.912 62.2142 88.968L64.1102 86.376C62.5262 84.768 60.5822 83.976 58.2782 83.976C56.5022 83.976 55.0382 84.48 53.9102 85.464C52.7822 86.448 52.2302 87.672 52.2302 89.16C52.2302 91.032 53.1662 92.496 55.0382 93.576C55.5182 93.84 56.2142 94.176 57.1262 94.536C58.0622 94.896 58.6382 95.112 58.8782 95.232C59.9582 95.736 60.4862 96.36 60.4862 97.08C60.4862 98.208 59.4062 98.976 57.9422 98.976C56.1182 98.976 54.3902 98.112 53.2382 96.504L51.1982 98.976C52.6622 101.112 55.1582 102.288 57.9182 102.288ZM76.7929 90.48C75.6409 89.208 74.2489 88.584 72.6169 88.584C70.7689 88.584 69.2089 89.232 67.9849 90.528C66.7609 91.8 66.1369 93.432 66.1369 95.4C66.1369 97.368 66.7369 99.024 67.9609 100.344C69.1849 101.664 70.7449 102.312 72.6169 102.312C74.2729 102.312 75.6649 101.712 76.7929 100.488V102H80.0089V88.92H76.7929V90.48ZM76.8409 95.448C76.8409 96.504 76.4809 97.392 75.7849 98.136C75.0889 98.88 74.2249 99.24 73.1689 99.24C72.1129 99.24 71.2489 98.88 70.5529 98.136C69.8569 97.392 69.5209 96.504 69.5209 95.448C69.5209 94.416 69.8569 93.528 70.5289 92.784C71.2249 92.04 72.0889 91.68 73.1689 91.68C74.2249 91.68 75.0889 92.04 75.7849 92.784C76.4809 93.528 76.8409 94.416 76.8409 95.448ZM90.3236 95.424L94.4036 88.92H90.5876L88.1876 92.928L85.9556 88.92H82.0916L85.9556 95.328L81.6116 102H85.5236L88.1396 97.704L90.6356 102H94.5236L90.3236 95.424Z" fill="#1E2945"/>
</svg>
