<svg width="26" height="10" viewBox="0 0 26 10" fill="none" xmlns="http://www.w3.org/2000/svg">
<path d="M3.66995 9.80072C2.7314 9.80072 1.95163 9.59632 1.33066 9.1875C0.717697 8.79282 0.250265 8.20679 0 7.51922L1.80836 6.46416C2.17563 7.3166 2.81789 7.74282 3.73516 7.74282C4.56371 7.74282 4.97843 7.49244 4.97932 6.99169C4.97929 6.85804 4.94182 6.72711 4.87122 6.61391C4.80061 6.50071 4.69972 6.40983 4.58012 6.35169C4.31399 6.19771 3.81367 6.02098 3.07914 5.81612C2.73384 5.72527 2.39651 5.60615 2.0705 5.45997C1.76941 5.32106 1.48577 5.14668 1.22554 4.94047C0.952284 4.72985 0.735884 4.45365 0.596135 4.13713C0.446164 3.78175 0.372697 3.39844 0.380568 3.01244C0.380568 2.15911 0.683958 1.4776 1.29074 0.96792C1.89818 0.457474 2.66845 0.18502 3.45971 0.200723C4.16191 0.186382 4.85383 0.372041 5.4557 0.736288C6.04651 1.11068 6.51806 1.64789 6.8143 2.28407L5.04585 3.32575C4.90962 3.01085 4.69795 2.73484 4.42976 2.5224C4.14309 2.33127 3.80317 2.23744 3.45971 2.25462C3.20103 2.23798 2.9444 2.31021 2.73184 2.45947C2.65352 2.51569 2.58955 2.58976 2.54514 2.67563C2.50073 2.7615 2.47716 2.85673 2.47635 2.95353C2.47852 3.07093 2.5085 3.18612 2.56382 3.28952C2.61913 3.39292 2.69818 3.48153 2.79438 3.548C3.00729 3.71403 3.45173 3.8988 4.12504 4.10098C4.4923 4.21612 4.77573 4.30717 4.97666 4.37813C5.24003 4.4773 5.49653 4.59405 5.74445 4.72759C6.0079 4.85631 6.24702 5.0303 6.45103 5.24173C6.63396 5.455 6.78095 5.69697 6.88615 5.95805C7.01761 6.27743 7.08238 6.62061 7.07644 6.96625C7.07644 7.84547 6.76196 8.53768 6.133 9.0429C5.50404 9.54812 4.68303 9.80072 3.66995 9.80072Z" fill="#5D5D71"/>
<path d="M10.0648 9.61718L7.07617 0.386719H9.37023L11.4008 7.17768L13.4394 0.386719H15.7321L12.7381 9.61718H10.0648Z" fill="#5D5D71"/>
<path d="M25.2001 4.47252V5.26382C25.2001 6.64468 24.7742 7.74571 23.9226 8.56691C23.071 9.38811 21.9901 9.79916 20.6798 9.80005C19.2542 9.80005 18.0726 9.33857 17.1349 8.41562C16.6791 7.97873 16.3185 7.45131 16.0759 6.8668C15.8333 6.2823 15.7141 5.65345 15.7258 5.02013C15.7132 4.38492 15.8306 3.7539 16.0707 3.1663C16.3108 2.5787 16.6686 2.0471 17.1216 1.60457C17.5656 1.149 18.0973 0.789443 18.6842 0.547932C19.2711 0.30642 19.9008 0.188041 20.5348 0.200049C21.3549 0.191447 22.164 0.390829 22.8874 0.779798C23.5641 1.13437 24.136 1.66225 24.5454 2.31018L22.7623 3.33846C22.539 3.00213 22.2289 2.73324 21.8654 2.56055C21.4477 2.35346 20.9871 2.24929 20.5215 2.25662C20.1636 2.24598 19.8074 2.30955 19.475 2.44338C19.1426 2.57721 18.8411 2.77843 18.5893 3.03453C18.0784 3.55492 17.8229 4.21679 17.8229 5.02013C17.8229 5.82348 18.085 6.47643 18.6093 6.97896C19.1336 7.48507 19.8322 7.73768 20.7051 7.73679C21.9195 7.73679 22.7015 7.26237 23.051 6.31352H20.6V4.47252H25.2001Z" fill="#5D5D71"/>
</svg>
