<svg width="17" height="12" viewBox="0 0 17 12" fill="none" xmlns="http://www.w3.org/2000/svg">
<path fill-rule="evenodd" clip-rule="evenodd" d="M4.83278 5.82495C5.53621 5.82495 6.04356 5.65386 6.35325 5.31168C6.66295 4.9695 6.81702 4.49109 6.81702 3.87802C6.81702 3.60554 6.77656 3.35842 6.69719 3.13663C6.62068 2.91908 6.49608 2.72234 6.33302 2.56158C6.15697 2.39326 5.94651 2.26667 5.71674 2.19089C5.4311 2.09843 5.13245 2.05454 4.83278 2.06099H3.42436V5.82495H4.83278ZM4.83278 0C5.65449 0 6.35948 0.0982175 6.9493 0.296237C7.53913 0.495841 8.02313 0.768317 8.40597 1.11525C8.78725 1.46376 9.06893 1.87406 9.25102 2.34614C9.43154 2.81822 9.52181 3.32832 9.52181 3.87802C9.52181 4.46891 9.42843 5.01228 9.24168 5.50653C9.05493 6.00079 8.77013 6.42535 8.38573 6.77861C8.00134 7.1303 7.51423 7.40594 6.92596 7.60554C6.33458 7.80356 5.63737 7.90178 4.83278 7.90178H3.42436V11.8701H0.718018V0H4.83278ZM15.7095 5.27049C15.6594 5.35914 15.5896 5.43456 15.5056 5.49069C15.4207 5.53736 15.325 5.5598 15.2286 5.55564C15.1074 5.55464 14.9877 5.52821 14.8769 5.47802C14.7503 5.42255 14.6238 5.3671 14.4972 5.31168C14.347 5.24652 14.1932 5.19045 14.0365 5.14376C13.8466 5.09004 13.65 5.06443 13.4529 5.06772C13.137 5.06772 12.8958 5.12792 12.7277 5.2499C12.6468 5.30631 12.5812 5.38269 12.5371 5.47189C12.493 5.5611 12.4719 5.66022 12.4756 5.76C12.4756 5.91842 12.5301 6.04673 12.6406 6.15129C12.7495 6.25426 12.8942 6.34455 13.0763 6.42376C13.2568 6.50297 13.4623 6.57742 13.6926 6.64713C13.9214 6.71841 14.1564 6.79762 14.396 6.88475C14.6373 6.9703 14.8722 7.07327 15.101 7.18891C15.3298 7.30614 15.5368 7.4503 15.7173 7.62139C15.8994 7.79248 16.0441 8 16.1531 8.24396C16.262 8.4895 16.318 8.78257 16.318 9.12475C16.318 9.54297 16.2433 9.92792 16.0939 10.2812C15.9442 10.6345 15.7149 10.9471 15.4247 11.1937C15.1017 11.4635 14.7293 11.6654 14.3291 11.7877C13.8934 11.9303 13.3938 12 12.8273 12C12.5456 12 12.2624 11.9731 11.9792 11.9192C11.7009 11.8655 11.4268 11.7914 11.159 11.6974C10.9061 11.6106 10.6613 11.5008 10.4276 11.3695C10.2212 11.2544 10.0281 11.1162 9.85174 10.9576L10.4276 10.0293C10.4871 9.92517 10.5704 9.83715 10.6703 9.77267C10.7861 9.70513 10.9183 9.67218 11.0516 9.67762C11.1948 9.67762 11.324 9.71089 11.4407 9.77584L11.8111 9.98812C11.9449 10.0642 12.1005 10.1339 12.2795 10.2004C12.4585 10.2638 12.6841 10.297 12.9565 10.297C13.1479 10.297 13.3113 10.2764 13.4436 10.2368C13.5609 10.2045 13.6702 10.1473 13.7642 10.0689C13.8367 10.0069 13.8951 9.92955 13.9354 9.8423C13.9757 9.75506 13.9969 9.65997 13.9976 9.56356C13.9998 9.48611 13.9858 9.40907 13.9565 9.33752C13.9273 9.26598 13.8835 9.20156 13.828 9.14851C13.6988 9.02905 13.5496 8.93409 13.3876 8.86812C13.1857 8.78139 12.9789 8.70732 12.7682 8.64634C12.5347 8.5798 12.2997 8.50376 12.0601 8.41505C11.8173 8.32694 11.5808 8.22214 11.352 8.10139C11.1221 7.98116 10.9125 7.82448 10.731 7.63723C10.5424 7.43885 10.3928 7.20545 10.2906 6.9497C10.1708 6.63532 10.1137 6.29984 10.1225 5.96277C10.1225 5.60475 10.191 5.26416 10.3264 4.94099C10.4633 4.61782 10.6672 4.33426 10.9396 4.08871C11.2119 3.84475 11.5527 3.65149 11.9636 3.50733C12.3744 3.36317 12.8553 3.2903 13.4047 3.2903C13.9706 3.28994 14.5319 3.39518 15.0606 3.60079C15.3064 3.69901 15.5305 3.81307 15.7329 3.94614C15.9352 4.07921 16.1141 4.22495 16.2698 4.38337L15.7095 5.27049Z" fill="#26CDF7"/>
</svg>
