<svg width="19" height="12" viewBox="0 0 19 12" fill="none" xmlns="http://www.w3.org/2000/svg">
<path fill-rule="evenodd" clip-rule="evenodd" d="M11.1729 11.8734H8.6084C8.46284 11.881 8.31918 11.8363 8.20116 11.747C8.09989 11.6651 8.01599 11.5622 7.95474 11.4447L5.73997 7.3995C5.69866 7.51671 5.65291 7.61541 5.60275 7.70178L3.53848 11.4447C3.46594 11.5522 3.38177 11.6505 3.28764 11.7377C3.18461 11.8305 3.05172 11.879 2.9158 11.8734H0.518066L4.07705 5.92516L0.653815 0.317695H3.22124C3.347 0.309119 3.47292 0.331845 3.58865 0.384009C3.66685 0.430275 3.7362 0.504302 3.7967 0.610714L5.99671 4.50478C6.02327 4.43693 6.05131 4.37061 6.08524 4.30738C6.11771 4.24261 6.15459 4.17784 6.19443 4.10844L8.12148 0.650811C8.17801 0.550235 8.25448 0.46347 8.34576 0.396348C8.43376 0.341003 8.53528 0.313671 8.63791 0.317695H11.0961L7.62865 5.81412L11.1729 11.8734ZM16.1661 5.85267C16.0099 5.66219 15.812 5.51403 15.5891 5.42085C15.3807 5.33857 15.1597 5.29676 14.937 5.29748C14.7296 5.29522 14.5244 5.3416 14.3364 5.43319C14.1452 5.5315 13.9819 5.68036 13.8628 5.86501C13.73 6.06395 13.6237 6.3215 13.5485 6.6392C13.466 7.01594 13.4274 7.40171 13.4334 7.78814C13.4334 8.2215 13.4644 8.587 13.5249 8.88311C13.5854 9.17921 13.6709 9.41825 13.7787 9.60023C13.8713 9.76692 14.0068 9.90316 14.1697 9.99349C14.3281 10.0743 14.5025 10.115 14.6787 10.1122C14.8499 10.1122 15.0063 10.0953 15.145 10.0614C15.4105 9.99772 15.6559 9.8639 15.8577 9.67271C15.961 9.57401 16.0643 9.46143 16.1661 9.33497V5.85421V5.85267ZM18.5181 0V11.8734H17.0617C16.7666 11.8734 16.5748 11.7346 16.4848 11.4601L16.3018 10.834C16.1488 11.0051 15.9841 11.1644 15.809 11.3105C15.4577 11.6059 15.0463 11.8133 14.6064 11.9166C14.3609 11.9739 14.1099 12.0019 13.8583 11.9999C13.4496 11.9999 13.0704 11.9043 12.7207 11.7146C12.3628 11.5161 12.0537 11.2337 11.8177 10.8895C11.5461 10.4896 11.3443 10.0427 11.2216 9.56939C11.0702 8.98913 10.9977 8.38951 11.0061 7.78814C11.0061 7.17588 11.0873 6.60527 11.2481 6.07937C11.4104 5.55348 11.6391 5.09853 11.9357 4.71452C12.2308 4.33206 12.5864 4.03133 13.0011 3.81542C13.4157 3.59951 13.8746 3.49001 14.3748 3.49001C14.785 3.49001 15.1288 3.5517 15.4076 3.67199C15.685 3.79383 15.9388 3.9573 16.1661 4.16396V0H18.5181Z" fill="#FF3995"/>
</svg>
