<svg width="22" height="22" viewBox="0 0 22 22" fill="#ffffff" xmlns="http://www.w3.org/2000/svg">
<path d="M6.29747 11.2569C5.91247 11.2569 5.51828 11.2386 5.13328 11.2019L2.22747 10.9361C1.85163 10.8994 1.56747 10.5694 1.60414 10.1844C1.64081 9.80855 1.96165 9.52439 2.35581 9.56106L5.26163 9.8269C9.7533 10.2394 14.1166 7.96607 16.3624 4.04274C16.5549 3.71274 16.9675 3.60274 17.2975 3.78607C17.6275 3.97857 17.7375 4.39106 17.5542 4.72106C15.2442 8.7819 10.9083 11.2569 6.29747 11.2569Z" fill="#9BA4BE"/>
<path d="M5.04171 18.4434C4.92254 18.4434 4.81255 18.4159 4.70255 18.3517C4.37255 18.1592 4.26252 17.7467 4.44586 17.4167C6.95752 13.0259 11.8342 10.4775 16.8667 10.945L19.7725 11.2109C20.1484 11.2476 20.4325 11.5775 20.3959 11.9625C20.3592 12.3384 20.0384 12.6134 19.6442 12.5859L16.7384 12.32C12.2467 11.9075 7.8834 14.1809 5.63757 18.1042C5.50923 18.3242 5.28004 18.4434 5.04171 18.4434Z" fill="#9BA4BE"/>
<path d="M11 20.8543C5.56421 20.8543 1.14587 16.436 1.14587 11.0002C1.14587 5.56433 5.56421 1.146 11 1.146C16.4359 1.146 20.8542 5.56433 20.8542 11.0002C20.8542 16.436 16.4359 20.8543 11 20.8543ZM11 2.521C6.32504 2.521 2.52087 6.32516 2.52087 11.0002C2.52087 15.6752 6.32504 19.4793 11 19.4793C15.675 19.4793 19.4792 15.6752 19.4792 11.0002C19.4792 6.32516 15.675 2.521 11 2.521Z" fill="#9BA4BE"/>
<path d="M15.0974 19.8916C14.7858 19.8916 14.5108 19.6808 14.4283 19.3691L13.3191 14.795C12.6133 11.8983 11.2566 9.13911 9.37743 6.81077L6.46244 3.18996C6.2241 2.89662 6.26992 2.46577 6.56326 2.22744C6.85659 1.98911 7.28747 2.03496 7.5258 2.32829L10.4408 5.94911C12.4391 8.43327 13.8966 11.3758 14.6483 14.4649L15.7575 19.0391C15.8491 19.4058 15.62 19.7816 15.2533 19.8733C15.2075 19.8824 15.1524 19.8916 15.0974 19.8916Z" fill="#9BA4BE"/>
</svg>
