<?xml version="1.0" encoding="utf-8"?>
<!-- Generator: Adobe Illustrator 25.3.0, SVG Export Plug-In . SVG Version: 6.00 Build 0)  -->
<svg version="1.1" id="Layer_1" xmlns="http://www.w3.org/2000/svg" xmlns:xlink="http://www.w3.org/1999/xlink" x="0px" y="0px"
	 viewBox="0 0 400 400" style="enable-background:new 0 0 400 400;" xml:space="preserve">
<path d="M199.2,20.4c-0.1,0-0.1,0-0.2,0h0.5C199.4,20.4,199.3,20.4,199.2,20.4z"/>
<path d="M199.6,20.4h-0.5c-15.7,0-29.5,3.5-42.2,9.1V91v52.2c0.3,0.5,0.5,1.2,0.8,1.7c5.2,6.9,11.8,12.4,19.9,16.4
	c8,4,19,8.4,32.9,13.1c12.7,4.4,23.3,8.8,32.7,13.2v-74.3v-83C230.5,24,216.1,20.5,199.6,20.4z"/>
<path d="M222.6,233.6c-8.2-4-19.5-8.4-33.9-13.1c-12.4-4.1-22.7-8.3-31.9-12.6v93.6c0,0,0,0,0,0c0,0,0,0,0,0v68.1
	c13.5,6.3,28.1,10,44.3,10c15.8,0,29.5-3.9,42-10v-61.2v0v-57.6C237.6,243.4,230.8,237.7,222.6,233.6z"/>
</svg>
