<svg width="480" height="481" viewBox="0 0 480 481" fill="none" xmlns="http://www.w3.org/2000/svg">
<path opacity="0.1" d="M1.42452 98.9145V101.164H24.7993C9.59091 117.364 0.300781 139.114 0.300781 163.039V390.289C0.300781 414.214 9.66564 435.964 24.8747 452.163H1.42452V454.414H24.5744L0.300781 478.714L1.87359 480.364L26.2981 455.914V479.463H28.5455V455.914C44.7282 471.214 66.6049 480.664 90.5796 480.664H316.839C340.813 480.664 362.615 471.289 378.798 455.914V479.464H381.045V455.839L405.619 480.364L407.192 478.714L382.918 454.414H405.994V452.164H382.543C397.827 435.964 407.117 414.214 407.117 390.289V163.039C407.117 139.114 397.827 117.364 382.619 101.164H405.994V98.9145H382.843L407.192 74.6143L405.619 73.0395L381.12 97.5642V73.7143H378.873V97.4139C362.69 82.1144 340.888 72.6641 316.913 72.6641H90.6543C66.6049 72.6641 44.8029 82.1144 28.6203 97.4894V73.7143H26.3728V97.4139L1.94901 72.964L0.37552 74.5394L24.5744 98.9145H1.42452ZM404.87 275.539H381.045V204.589H404.87V275.539ZM152.164 226.639L201.012 275.539L132.235 275.539V273.664C132.91 255.439 140.401 238.939 152.164 226.639ZM132.235 257.914V206.614L150.59 224.989C141.9 234.139 135.457 245.389 132.235 257.914ZM206.481 277.789H275.333C275.108 296.764 267.541 313.939 255.329 326.689L206.481 277.789ZM206.481 275.539L255.329 226.639C267.541 239.389 275.108 256.564 275.333 275.539H206.481ZM204.833 273.964V204.664C223.788 204.964 241.019 212.689 253.681 225.064L204.833 273.964ZM202.585 273.964L153.737 225.064C166.399 212.689 183.63 204.964 202.585 204.664V273.964ZM132.235 277.789H201.012L152.164 326.689C140.327 314.389 132.91 297.889 132.235 279.739V277.789ZM150.59 328.264L132.235 346.639V295.414C135.457 307.939 141.9 319.189 150.59 328.264ZM152.164 329.839C161.229 338.689 172.617 345.289 185.204 348.589H133.434L152.164 329.839ZM153.812 328.264L202.66 279.364V348.589H200.113C182.132 347.689 165.874 340.039 153.812 328.264ZM204.833 348.589V279.364L253.681 328.264C241.619 340.039 225.361 347.689 207.38 348.589H204.833ZM255.254 329.839L273.984 348.589H222.214C234.876 345.289 246.189 338.764 255.254 329.839ZM256.902 328.264C265.743 319.114 272.186 307.639 275.408 294.964V346.789L256.902 328.264ZM256.902 225.064L275.333 206.539V258.364C272.186 245.689 265.668 234.214 256.902 225.064ZM255.254 223.489C245.964 214.414 234.351 207.814 221.39 204.589H274.134L255.254 223.489ZM152.164 223.489L133.284 204.589H186.028C173.066 207.814 161.454 214.414 152.164 223.489ZM129.988 273.589C129.988 274.264 129.913 274.864 129.913 275.539H102.042C102.267 248.764 112.831 224.389 129.988 206.314V273.589ZM129.988 277.789C129.988 278.464 129.988 279.064 130.062 279.739V347.014C112.905 328.939 102.342 304.564 102.117 277.789H129.988ZM200.038 350.839C200.937 350.914 201.761 350.914 202.66 350.914V378.814C176.063 378.514 151.864 367.939 133.809 350.839H200.038ZM204.833 350.914C205.732 350.914 206.556 350.914 207.455 350.839H273.684C255.704 367.939 231.504 378.514 204.833 378.814V350.914ZM277.581 277.789H305.376C305.151 304.489 294.662 328.789 277.581 346.864V277.789ZM277.581 275.539V206.464C294.662 224.539 305.151 248.839 305.376 275.539H277.581ZM204.833 202.339V174.589C231.355 174.889 255.479 185.389 273.459 202.339H204.833ZM202.585 202.339H133.958C151.939 185.389 176.063 174.814 202.585 174.589V202.339ZM99.8697 275.539H46.8262C46.9756 249.964 53.1942 225.889 64.1326 204.589H128.564C110.958 223.039 100.019 248.089 99.8697 275.539ZM99.8697 277.789C100.095 305.164 110.883 330.064 128.414 348.589H64.0578C53.1195 327.364 46.9756 303.289 46.8262 277.789H99.8697ZM128.04 350.839L91.7781 387.139C81.2895 376.414 72.299 364.189 65.1068 350.839H128.04ZM129.988 352.039V415.714C116.502 408.514 104.215 399.364 93.4263 388.714L129.988 352.039ZM132.235 352.414C150.59 369.889 175.389 380.689 202.585 380.989V434.164C177.262 434.014 153.362 427.789 132.235 416.914V352.414ZM204.833 381.064C232.104 380.764 256.902 369.889 275.333 352.339V416.839C254.131 427.714 230.231 433.939 204.833 434.164V381.064ZM277.581 352.189L314.067 388.714C303.278 399.364 291.066 408.439 277.581 415.639V352.189ZM279.378 350.839H342.311C335.194 364.189 326.203 376.414 315.64 387.139L279.378 350.839ZM279.079 348.589C296.61 330.139 307.399 305.164 307.623 277.789H360.667C360.517 303.289 354.373 327.289 343.435 348.589H279.079ZM307.623 275.539C307.399 248.089 296.535 223.039 278.929 204.589H343.36C354.299 225.889 360.592 250.039 360.667 275.539H307.623ZM279.603 202.339L315.64 166.264C326.129 176.914 335.044 189.064 342.162 202.339H279.603ZM277.581 201.139V137.689C290.991 144.889 303.278 153.964 314.067 164.614L277.581 201.139ZM275.333 200.989C256.902 183.439 232.104 172.564 204.833 172.264V119.164C230.231 119.314 254.131 125.539 275.333 136.489V200.989ZM202.585 172.264C175.389 172.564 150.59 183.364 132.235 200.839V136.414C153.362 125.539 177.262 119.314 202.585 119.164V172.264ZM129.988 201.289L93.4263 164.689C104.215 154.039 116.502 144.889 129.988 137.689V201.289ZM127.89 202.339H65.331C72.4491 189.064 81.439 176.914 91.8528 166.264L127.89 202.339ZM62.784 202.339H28.5455V102.889L90.28 164.614C79.3416 175.714 70.0515 188.464 62.784 202.339ZM61.5855 204.589C50.7966 225.964 44.6535 250.039 44.5033 275.539H28.5455V204.589H61.5855ZM26.2981 275.539H2.54824V204.589H26.2981V275.539ZM2.54824 277.789H26.2981V348.589H2.54824V277.789ZM28.5455 277.789H44.5787C44.7282 303.214 50.7966 327.289 61.5101 348.589H28.5455V277.789ZM62.6345 350.839C69.9761 364.789 79.2662 377.539 90.2046 388.714L28.5455 450.439V350.839H62.6345ZM91.8528 390.289C103.091 401.389 115.902 410.839 129.988 418.264V452.164L29.9689 452.163L91.8528 390.289ZM132.235 419.389C153.438 430.114 177.337 436.189 202.585 436.414V452.164H132.235V419.389ZM202.585 454.414V478.414H132.235V454.414H202.585ZM204.833 454.414H275.333V478.414H204.833V454.414ZM204.833 452.164V436.414C230.156 436.264 254.055 430.114 275.333 419.389V452.164H204.833ZM277.581 418.189C291.665 410.764 304.477 401.389 315.64 390.289L377.449 452.164H277.581V418.189ZM317.213 388.714C328.151 377.539 337.517 364.789 344.784 350.839H378.873V450.364L317.213 388.714ZM345.983 348.589C356.696 327.289 362.839 303.214 362.915 277.789H378.873V348.589H345.983ZM381.12 277.789H404.87V348.589H381.045V277.789H381.12ZM378.873 275.539H362.99C362.839 250.039 356.771 225.964 345.907 204.589H378.873V275.539ZM344.709 202.339C337.441 188.464 328.151 175.789 317.213 164.689L378.798 103.039V202.339H344.709ZM315.64 163.039C304.477 151.939 291.665 142.489 277.581 135.139V101.164H377.449L315.64 163.039ZM275.333 133.939C254.131 123.214 230.156 117.064 204.833 116.914V101.164H275.333V133.939ZM204.833 98.9145V74.9142H275.333V98.9145H204.833ZM202.585 98.9145H132.235V74.9142H202.585V98.9145ZM202.585 101.164V116.914C177.337 117.064 153.438 123.214 132.235 133.939V101.164H202.585ZM129.988 135.064C115.902 142.489 103.016 151.939 91.8528 163.039L30.0436 101.164H129.988V135.064ZM26.2981 102.889V202.339H2.54824V163.039C2.54824 139.789 11.6135 118.714 26.2981 102.889ZM2.54824 350.839H26.2981V450.439C11.6135 434.689 2.54824 413.539 2.54824 390.289V350.839ZM30.3439 454.414H129.988V478.414H90.5796C67.2795 478.414 46.0768 469.264 30.3439 454.414ZM277.581 478.414V454.414H377.15C361.416 469.264 340.139 478.414 316.839 478.414H277.581ZM381.12 450.514V350.839H404.87V390.289C404.87 413.539 395.879 434.764 381.12 450.514ZM404.87 202.339H381.045V102.814C395.805 118.564 404.87 139.789 404.87 163.039V202.339ZM377.224 98.9145H277.581V74.9142H316.839C340.214 74.9142 361.416 84.0639 377.224 98.9145ZM129.988 74.9142V98.9145H30.2685C46.0021 84.0639 67.2795 74.9142 90.5796 74.9142H129.988Z" fill="#3F3F40"/>
<path d="M204.299 459.583C185.769 459.583 167.409 454.143 152.959 443.433L79.8591 388.863C60.4791 374.413 45.3491 344.323 45.3491 320.183V193.703C45.3491 167.523 64.5591 139.643 89.2091 130.463L174.039 98.6731C190.869 92.3831 217.389 92.3831 234.219 98.6731L319.219 130.463C343.869 139.643 363.079 167.523 363.079 193.703V320.013C363.079 344.153 347.949 374.243 328.569 388.693L255.469 443.263C241.189 454.143 222.829 459.583 204.299 459.583ZM183.049 122.643L98.2191 154.433C83.5991 159.873 70.8491 178.233 70.8491 193.873V320.183C70.8491 336.333 82.2391 358.943 94.9891 368.463L168.089 423.033C187.639 437.653 220.789 437.653 240.339 423.033L313.439 368.463C326.359 358.773 337.579 336.163 337.579 320.183V193.703C337.579 178.233 324.829 159.873 310.209 154.263L225.379 122.473C214.159 118.393 194.439 118.393 183.049 122.643Z" fill="#1E2945"/>
<path d="M204.301 297.914C178.461 297.914 157.551 277.004 157.551 251.164C157.551 225.324 178.461 204.414 204.301 204.414C230.141 204.414 251.051 225.324 251.051 251.164C251.051 277.004 230.141 297.914 204.301 297.914ZM204.301 229.914C192.571 229.914 183.051 239.434 183.051 251.164C183.051 262.894 192.571 272.414 204.301 272.414C216.031 272.414 225.551 262.894 225.551 251.164C225.551 239.434 216.031 229.914 204.301 229.914Z" fill="#195BFF"/>
<path d="M204.301 348.914C197.331 348.914 191.551 343.134 191.551 336.164V285.164C191.551 278.194 197.331 272.414 204.301 272.414C211.271 272.414 217.051 278.194 217.051 285.164V336.164C217.051 343.134 211.271 348.914 204.301 348.914Z" fill="#195BFF"/>
<path d="M193.238 16.8833H185.374V15.7868L189.306 11.4176C189.658 11.0274 189.952 10.6811 190.188 10.3788C190.425 10.0766 190.615 9.79906 190.757 9.54623C190.9 9.28791 191.002 9.04614 191.062 8.82075C191.123 8.58995 191.153 8.35363 191.153 8.1118C191.153 7.81502 191.103 7.53748 191.005 7.27917C190.911 7.01537 190.771 6.78729 190.584 6.59493C190.403 6.40258 190.18 6.25144 189.916 6.14152C189.658 6.0261 189.364 5.96839 189.034 5.96839C188.633 5.96839 188.284 6.0261 187.988 6.14152C187.696 6.25693 187.452 6.42181 187.254 6.63615C187.062 6.845 186.915 7.10055 186.817 7.40283C186.723 7.70511 186.677 8.04311 186.677 8.41682H185.144C185.144 7.9112 185.231 7.43581 185.407 6.99063C185.583 6.53997 185.836 6.14701 186.166 5.81177C186.501 5.47651 186.907 5.20997 187.386 5.01211C187.869 4.81426 188.419 4.71533 189.034 4.71533C189.601 4.71533 190.109 4.80052 190.56 4.97089C191.016 5.13577 191.401 5.36659 191.714 5.66338C192.027 5.96016 192.266 6.3119 192.43 6.71859C192.601 7.12529 192.686 7.56771 192.686 8.04585C192.686 8.40309 192.626 8.7576 192.505 9.10929C192.384 9.45556 192.219 9.79906 192.01 10.1398C191.807 10.4806 191.568 10.8186 191.293 11.1538C191.024 11.4835 190.738 11.8133 190.436 12.1431L187.213 15.6384H193.238V16.8833Z" fill="#1E2945"/>
<path d="M202.201 12.8507H203.874V14.0955H202.201V16.882H200.676V14.0955H195.202V13.197L200.577 4.87891H202.201V12.8507ZM196.892 12.8507H200.676V6.9069L200.428 7.36855L196.892 12.8507Z" fill="#1E2945"/>
<path d="M213.684 12.5206C213.684 13.1581 213.608 13.7545 213.454 14.3095C213.3 14.8591 213.075 15.3373 212.778 15.744C212.481 16.1506 212.113 16.4694 211.673 16.7003C211.239 16.9311 210.742 17.0465 210.181 17.0465C209.637 17.0465 209.156 16.9586 208.738 16.7827C208.327 16.6068 207.972 16.354 207.675 16.0243V20.311H206.149V7.96176H207.543L207.617 8.93449C207.914 8.56635 208.271 8.28601 208.689 8.09366C209.112 7.8958 209.601 7.79688 210.157 7.79688C210.728 7.79688 211.234 7.90955 211.673 8.13487C212.113 8.36021 212.481 8.67347 212.778 9.07471C213.075 9.47586 213.3 9.95678 213.454 10.5173C213.608 11.0724 213.684 11.6825 213.684 12.3475V12.5206ZM212.16 12.3475C212.16 11.9133 212.11 11.5011 212.011 11.1109C211.918 10.7152 211.769 10.369 211.566 10.0722C211.368 9.76988 211.116 9.53081 210.808 9.35497C210.499 9.17913 210.131 9.09117 209.703 9.09117C209.214 9.09117 208.802 9.20657 208.467 9.43745C208.137 9.66276 207.872 9.95399 207.675 10.3112V14.6063C207.872 14.9581 208.137 15.2466 208.467 15.4719C208.796 15.6917 209.214 15.8017 209.719 15.8017C210.142 15.8017 210.508 15.7137 210.816 15.5378C211.123 15.3565 211.377 15.1147 211.574 14.8124C211.772 14.5102 211.918 14.1612 212.011 13.7654C212.11 13.3698 212.16 12.9548 212.16 12.5206V12.3475Z" fill="#1E2945"/>
<path d="M219.983 11.2706L222.365 7.96484H224.155L220.832 12.3753L224.245 16.8847H222.481L220.016 13.4882L217.551 16.8847H215.771L219.183 12.3753L215.861 7.96484H217.625L219.983 11.2706Z" fill="#1E2945"/>
<path d="M0.855469 25.3251V0H2.54381V11.8184H162.092V13.5067H2.54381V25.3251H0.855469Z" fill="#3F3F40" fill-opacity="0.1"/>
<path d="M406.058 25.3251V13.5067H246.51V11.8184H406.058V0H407.746V25.3251H406.058Z" fill="#3F3F40" fill-opacity="0.1"/>
<path d="M462.972 265.602L462.972 257.737L464.068 257.737L468.438 261.669C468.828 262.021 469.174 262.315 469.476 262.552C469.779 262.788 470.056 262.978 470.309 263.121C470.567 263.263 470.809 263.365 471.034 263.425C471.265 263.486 471.502 263.516 471.743 263.516C472.04 263.516 472.318 263.467 472.576 263.368C472.84 263.274 473.068 263.134 473.26 262.948C473.453 262.766 473.604 262.543 473.714 262.28C473.829 262.021 473.887 261.728 473.887 261.398C473.887 260.997 473.829 260.647 473.714 260.351C473.598 260.06 473.433 259.815 473.219 259.617C473.01 259.425 472.755 259.279 472.452 259.18C472.15 259.086 471.812 259.04 471.438 259.04L471.438 257.507C471.944 257.507 472.419 257.595 472.865 257.77C473.315 257.946 473.708 258.199 474.043 258.529C474.379 258.864 474.645 259.27 474.843 259.749C475.041 260.233 475.14 260.782 475.14 261.398C475.14 261.964 475.055 262.472 474.884 262.923C474.719 263.379 474.489 263.764 474.192 264.077C473.895 264.39 473.543 264.629 473.137 264.794C472.73 264.964 472.288 265.05 471.809 265.05C471.452 265.05 471.098 264.99 470.746 264.868C470.4 264.747 470.056 264.583 469.715 264.373C469.375 264.171 469.037 263.931 468.701 263.657C468.372 263.387 468.042 263.101 467.712 262.799L464.217 259.576L464.217 265.602L462.972 265.602Z" fill="#1E2945"/>
<path d="M467.003 274.564L467.003 276.238L465.758 276.238L465.758 274.564L462.972 274.564L462.972 273.039L465.758 273.039L465.758 267.565L466.657 267.565L474.975 272.94L474.975 274.564L467.003 274.564ZM467.003 269.255L467.003 273.039L472.947 273.039L472.485 272.792L467.003 269.255Z" fill="#1E2945"/>
<path d="M467.333 286.047C466.695 286.047 466.099 285.97 465.544 285.817C464.994 285.663 464.516 285.438 464.11 285.141C463.703 284.843 463.384 284.475 463.153 284.036C462.922 283.602 462.807 283.104 462.807 282.544C462.807 281.999 462.895 281.519 463.071 281.101C463.247 280.689 463.5 280.335 463.829 280.038L459.542 280.038L459.542 278.512L471.892 278.512L471.892 279.906L470.919 279.98C471.287 280.277 471.568 280.634 471.76 281.051C471.958 281.475 472.057 281.964 472.057 282.519C472.057 283.091 471.944 283.597 471.719 284.036C471.493 284.475 471.18 284.843 470.779 285.141C470.378 285.438 469.897 285.663 469.336 285.817C468.781 285.97 468.171 286.047 467.506 286.047L467.333 286.047ZM467.506 284.523C467.94 284.523 468.352 284.473 468.743 284.374C469.138 284.28 469.485 284.132 469.781 283.928C470.084 283.731 470.323 283.478 470.499 283.17C470.674 282.862 470.762 282.494 470.762 282.065C470.762 281.577 470.647 281.165 470.416 280.829C470.191 280.499 469.9 280.235 469.542 280.038L465.247 280.038C464.895 280.235 464.607 280.499 464.382 280.829C464.162 281.159 464.052 281.577 464.052 282.082C464.052 282.505 464.14 282.871 464.316 283.179C464.497 283.486 464.739 283.739 465.041 283.937C465.343 284.135 465.692 284.28 466.088 284.374C466.484 284.473 466.899 284.523 467.333 284.523L467.506 284.523Z" fill="#1E2945"/>
<path d="M468.586 292.346L471.892 294.728L471.892 296.518L467.481 293.195L462.972 296.608L462.972 294.844L466.368 292.379L462.972 289.914L462.972 288.133L467.481 291.546L471.892 288.224L471.892 289.988L468.586 292.346Z" fill="#1E2945"/>
<path d="M454.53 73.2187L479.855 73.2188L479.855 74.9071L468.037 74.9071L468.037 234.455L466.349 234.455L466.349 74.9071L454.53 74.9071L454.53 73.2187Z" fill="#3F3F40" fill-opacity="0.1"/>
<path d="M454.53 478.419L466.349 478.419L466.349 318.871L468.037 318.871L468.037 478.419L479.855 478.419L479.855 480.108L454.53 480.108L454.53 478.419Z" fill="#3F3F40" fill-opacity="0.1"/>
</svg>
