<svg width="412" height="308" viewBox="0 0 412 308" fill="none" xmlns="http://www.w3.org/2000/svg">
<rect x="0.75" y="-0.75" width="110.179" height="108.5" rx="27.25" transform="matrix(1 0 0 -1 0 109.25)" stroke="#E6EAF3" stroke-width="1.5"/>
<path d="M45.5474 55.7517L51.8713 61.9325L64.5454 49.5708" stroke="#1E2945" stroke-width="5" stroke-linecap="round" stroke-linejoin="round"/>
<path d="M51.7664 31.3602C53.577 29.8533 56.5421 29.8533 58.379 31.3602L62.525 34.8337C63.3122 35.4978 64.7816 36.0341 65.8313 36.0341H70.2921C73.0736 36.0341 75.3565 38.2562 75.3565 40.9635V45.3054C75.3565 46.3015 75.9076 47.7573 76.5898 48.5235L80.1585 52.559C81.7067 54.3213 81.7067 57.2074 80.1585 58.9952L76.5898 63.0306C75.9076 63.7969 75.3565 65.2271 75.3565 66.2488V70.5907C75.3565 73.298 73.0736 75.5201 70.2921 75.5201H65.8313C64.8079 75.5201 63.3122 76.0564 62.525 76.7205L58.379 80.194C56.5684 81.7009 53.6032 81.7009 51.7664 80.194L47.6204 76.7205C46.8332 76.0564 45.3637 75.5201 44.3141 75.5201H39.7745C36.993 75.5201 34.7101 73.298 34.7101 70.5907V66.2232C34.7101 65.2271 34.159 63.7969 33.503 63.0306L29.9606 58.9697C28.4386 57.2074 28.4386 54.3468 29.9606 52.5845L33.503 48.5235C34.159 47.7573 34.7101 46.327 34.7101 45.3309V40.9379C34.7101 38.2306 36.993 36.0086 39.7745 36.0086H44.3141C45.3375 36.0086 46.8332 35.4722 47.6204 34.8082L51.7664 31.3602Z" stroke="#1E2945" stroke-width="4" stroke-linecap="round" stroke-linejoin="round"/>
<path d="M39.44 138.922H31.488V127.098H33.088V137.37H39.44V138.922ZM41.6246 129.13C41.3046 129.13 41.038 129.029 40.8246 128.826C40.6113 128.613 40.5046 128.346 40.5046 128.026C40.5046 127.717 40.6113 127.461 40.8246 127.258C41.038 127.055 41.3046 126.954 41.6246 126.954C41.9233 126.954 42.1793 127.061 42.3926 127.274C42.606 127.477 42.7126 127.727 42.7126 128.026C42.7126 128.346 42.606 128.613 42.3926 128.826C42.1793 129.029 41.9233 129.13 41.6246 129.13ZM42.3606 130.346V138.922H40.8246V130.346H42.3606ZM46.2825 138.922H44.7465V130.346H46.2505V131.562C46.7945 130.602 47.7012 130.122 48.9705 130.122C49.9305 130.122 50.7358 130.431 51.3865 131.05C52.0372 131.669 52.3625 132.559 52.3625 133.722V138.922H50.8425V134.154C50.8425 133.333 50.6398 132.693 50.2345 132.234C49.8398 131.775 49.3118 131.546 48.6505 131.546C47.9572 131.546 47.3865 131.791 46.9385 132.282C46.5012 132.783 46.2825 133.413 46.2825 134.17V138.922ZM62.6051 134.474C62.6051 134.581 62.5891 134.842 62.5571 135.258H55.7251C55.8638 136.015 56.1838 136.613 56.6851 137.05C57.1865 137.487 57.8691 137.706 58.7331 137.706C59.2451 137.706 59.7731 137.621 60.3171 137.45C60.8611 137.269 61.3305 137.034 61.7251 136.746L62.3811 137.914C61.9331 138.255 61.3785 138.543 60.7171 138.778C60.0558 139.002 59.3838 139.114 58.7011 139.114C57.9225 139.114 57.2291 138.986 56.6211 138.73C56.0238 138.474 55.5491 138.127 55.1971 137.69C54.8451 137.253 54.5785 136.773 54.3971 136.25C54.2158 135.727 54.1251 135.178 54.1251 134.602C54.1251 133.322 54.5251 132.255 55.3251 131.402C56.1358 130.559 57.1811 130.138 58.4611 130.138C59.6771 130.138 60.6691 130.527 61.4371 131.306C62.2158 132.085 62.6051 133.141 62.6051 134.474ZM55.7251 133.93H61.0211C60.9785 133.194 60.7171 132.607 60.2371 132.17C59.7678 131.722 59.1758 131.498 58.4611 131.498C57.7678 131.498 57.1705 131.727 56.6691 132.186C56.1678 132.634 55.8531 133.215 55.7251 133.93ZM71.2024 131.594V130.346H72.6744V138.922H71.2024V137.706C70.4344 138.655 69.4264 139.13 68.1784 139.13C66.941 139.13 65.917 138.693 65.1064 137.818C64.2957 136.943 63.8904 135.861 63.8904 134.57C63.8904 133.279 64.2957 132.223 65.1064 131.402C65.917 130.559 66.941 130.138 68.1784 130.138C69.3944 130.138 70.4024 130.623 71.2024 131.594ZM71.2984 134.618C71.2984 133.754 71.0264 133.029 70.4824 132.442C69.9384 131.845 69.229 131.546 68.3544 131.546C67.4797 131.546 66.7757 131.845 66.2424 132.442C65.709 133.039 65.4424 133.77 65.4424 134.634C65.4424 135.498 65.709 136.229 66.2424 136.826C66.7757 137.423 67.4797 137.722 68.3544 137.722C69.229 137.722 69.9384 137.423 70.4824 136.826C71.0264 136.239 71.2984 135.503 71.2984 134.618ZM76.595 138.922H75.059V130.346H76.515V131.61C77.0163 130.618 77.8377 130.122 78.979 130.122C79.2883 130.122 79.6243 130.165 79.987 130.25L79.843 131.738C79.5337 131.642 79.235 131.594 78.947 131.594C78.243 131.594 77.6723 131.834 77.235 132.314C76.8083 132.794 76.595 133.482 76.595 134.378V138.922Z" fill="#6E6E77"/>
<rect x="0.75" y="-0.75" width="109.34" height="108.5" rx="27.25" transform="matrix(1 0 0 -1 0.046875 269.664)" stroke="#E6EAF3" stroke-width="1.5"/>
<path d="M80.1355 212.946L76.5668 208.911C75.8845 208.145 75.3335 206.714 75.3335 205.693V201.351C75.3335 198.643 73.0505 196.421 70.2691 196.421H65.8082C64.7848 196.421 63.2891 195.885 62.5019 195.221L58.3559 191.747C56.5453 190.24 53.5801 190.24 51.7433 191.747L47.6235 195.246C46.8363 195.885 45.3406 196.421 44.3173 196.421H39.7777C36.9962 196.421 34.7132 198.643 34.7132 201.351V205.718C34.7132 206.714 34.1622 208.145 33.5062 208.911L29.9637 212.972C28.4418 214.734 28.4418 217.595 29.9637 219.357L33.5062 223.418C34.1622 224.184 34.7132 225.614 34.7132 226.61V230.978C34.7132 233.685 36.9962 235.907 39.7777 235.907H44.3173C45.3406 235.907 46.8363 236.444 47.6235 237.108L51.7695 240.581C53.5801 242.088 56.5453 242.088 58.3821 240.581L62.5281 237.108C63.3153 236.444 64.7848 235.907 65.8344 235.907H70.2953C73.0768 235.907 75.3597 233.685 75.3597 230.978V226.636C75.3597 225.64 75.9108 224.184 76.593 223.418L80.1617 219.382C81.6837 217.62 81.6837 214.708 80.1355 212.946ZM65.9656 211.337L53.2915 223.673C52.9241 224.031 52.4256 224.235 51.9007 224.235C51.3759 224.235 50.8774 224.031 50.51 223.673L44.1598 217.492C43.3988 216.752 43.3988 215.526 44.1598 214.785C44.9208 214.044 46.1803 214.044 46.9413 214.785L51.9007 219.612L63.1841 208.63C63.9451 207.889 65.2047 207.889 65.9656 208.63C66.7266 209.37 66.7266 210.596 65.9656 211.337Z" fill="#1E2945"/>
<path d="M45.4467 293.391C46.1507 293.583 46.6947 293.962 47.0787 294.527C47.4733 295.082 47.6707 295.727 47.6707 296.463C47.6707 297.391 47.3453 298.186 46.6947 298.847C46.0547 299.519 45.1587 299.855 44.0067 299.855H39.1267V288.031H43.7987C44.8227 288.031 45.6173 288.33 46.1827 288.927C46.7587 289.514 47.0467 290.202 47.0467 290.991C47.0467 291.535 46.9027 292.026 46.6147 292.463C46.3267 292.901 45.9373 293.21 45.4467 293.391ZM43.5907 289.519H40.7107V292.815H43.5427C44.108 292.815 44.5613 292.65 44.9027 292.319C45.244 291.978 45.4147 291.567 45.4147 291.087C45.4147 290.65 45.244 290.282 44.9027 289.983C44.572 289.674 44.1347 289.519 43.5907 289.519ZM40.7107 298.351H43.7507C44.4547 298.351 45.004 298.154 45.3987 297.759C45.8147 297.365 46.0227 296.895 46.0227 296.351C46.0227 295.765 45.8093 295.274 45.3827 294.879C44.9667 294.474 44.4013 294.271 43.6867 294.271H40.7107V298.351ZM53.5567 300.063C52.2447 300.063 51.162 299.631 50.3087 298.767C49.466 297.893 49.0447 296.821 49.0447 295.551C49.0447 294.282 49.466 293.221 50.3087 292.367C51.1513 291.493 52.234 291.055 53.5567 291.055C54.858 291.055 55.93 291.493 56.7727 292.367C57.626 293.253 58.0527 294.314 58.0527 295.551C58.0527 296.81 57.626 297.882 56.7727 298.767C55.9193 299.631 54.8473 300.063 53.5567 300.063ZM56.5167 295.551C56.5167 294.709 56.2287 293.989 55.6527 293.391C55.0767 292.783 54.378 292.479 53.5567 292.479C52.7353 292.479 52.0367 292.783 51.4607 293.391C50.8847 293.989 50.5967 294.709 50.5967 295.551C50.5967 296.405 50.8847 297.135 51.4607 297.743C52.0367 298.351 52.7353 298.655 53.5567 298.655C54.378 298.655 55.0767 298.351 55.6527 297.743C56.2287 297.135 56.5167 296.405 56.5167 295.551ZM61.4212 287.743V299.855H59.8852V287.743H61.4212ZM70.575 292.527V287.743H72.111V299.855H70.575V298.655C69.8284 299.594 68.8364 300.063 67.599 300.063C66.351 300.063 65.3164 299.631 64.495 298.767C63.6844 297.893 63.279 296.821 63.279 295.551C63.279 294.293 63.6844 293.237 64.495 292.383C65.3057 291.509 66.3297 291.071 67.567 291.071C68.7937 291.071 69.7964 291.557 70.575 292.527ZM70.687 295.551C70.687 294.687 70.415 293.962 69.871 293.375C69.3377 292.778 68.6337 292.479 67.759 292.479C66.8844 292.479 66.175 292.778 65.631 293.375C65.0977 293.973 64.831 294.698 64.831 295.551C64.831 296.426 65.0977 297.162 65.631 297.759C66.175 298.357 66.8844 298.655 67.759 298.655C68.6337 298.655 69.3377 298.357 69.871 297.759C70.415 297.173 70.687 296.437 70.687 295.551Z" fill="#6E6E77"/>
<rect x="0.75" y="-0.75" width="110.179" height="108.5" rx="27.25" transform="matrix(1 0 0 -1 150 109.25)" stroke="#E6EAF3" stroke-width="1.5"/>
<path opacity="0.4" d="M202.939 31.3592C204.773 29.8523 207.778 29.8523 209.639 31.3592L213.841 34.8327C214.638 35.4968 216.127 36.0331 217.191 36.0331H221.711C224.53 36.0331 226.843 38.2552 226.843 40.9625V45.3044C226.843 46.3005 227.402 47.7563 228.093 48.5225L231.709 52.558C233.278 54.3203 233.278 57.2064 231.709 58.9942L228.093 63.0297C227.402 63.7959 226.843 65.2262 226.843 66.2478V70.5897C226.843 73.297 224.53 75.5191 221.711 75.5191H217.191C216.154 75.5191 214.638 76.0554 213.841 76.7195L209.639 80.193C207.805 81.6999 204.8 81.6999 202.939 80.193L198.737 76.7195C197.94 76.0554 196.451 75.5191 195.387 75.5191H190.787C187.968 75.5191 185.655 73.297 185.655 70.5897V66.2223C185.655 65.2262 185.096 63.7959 184.432 63.0297L180.842 58.9687C179.3 57.2064 179.3 54.3458 180.842 52.5835L184.432 48.5225C185.096 47.7563 185.655 46.326 185.655 45.3299V40.9369C185.655 38.2296 187.968 36.0076 190.787 36.0076H195.387C196.424 36.0076 197.94 35.4712 198.737 34.8072L202.939 31.3592Z" fill="#1E2945"/>
<path d="M203.044 63.8455C202.513 63.8455 202.007 63.6411 201.635 63.2836L195.2 57.1027C194.429 56.362 194.429 55.1361 195.2 54.3954C195.971 53.6547 197.248 53.6547 198.019 54.3954L203.044 59.2226L214.478 48.2401C215.249 47.4994 216.526 47.4994 217.297 48.2401C218.068 48.9808 218.068 50.2067 217.297 50.9474L204.454 63.2836C204.081 63.6411 203.576 63.8455 203.044 63.8455Z" fill="#1E2945"/>
<path d="M197.695 132.458C198.399 132.65 198.943 133.029 199.327 133.594C199.721 134.149 199.919 134.794 199.919 135.53C199.919 136.458 199.593 137.253 198.943 137.914C198.303 138.586 197.407 138.922 196.255 138.922H191.375V127.098H196.047C197.071 127.098 197.865 127.397 198.431 127.994C199.007 128.581 199.295 129.269 199.295 130.058C199.295 130.602 199.151 131.093 198.863 131.53C198.575 131.967 198.185 132.277 197.695 132.458ZM195.839 128.586H192.959V131.882H195.791C196.356 131.882 196.809 131.717 197.151 131.386C197.492 131.045 197.663 130.634 197.663 130.154C197.663 129.717 197.492 129.349 197.151 129.05C196.82 128.741 196.383 128.586 195.839 128.586ZM192.959 137.418H195.999C196.703 137.418 197.252 137.221 197.647 136.826C198.063 136.431 198.271 135.962 198.271 135.418C198.271 134.831 198.057 134.341 197.631 133.946C197.215 133.541 196.649 133.338 195.935 133.338H192.959V137.418ZM205.389 139.13C204.269 139.13 203.373 138.799 202.701 138.138C202.039 137.477 201.709 136.586 201.709 135.466V130.346H203.245V135.418C203.245 136.122 203.431 136.682 203.805 137.098C204.189 137.503 204.717 137.706 205.389 137.706C206.061 137.706 206.589 137.503 206.973 137.098C207.357 136.682 207.549 136.122 207.549 135.418V130.346H209.069V135.466C209.069 136.607 208.738 137.503 208.077 138.154C207.426 138.805 206.53 139.13 205.389 139.13ZM212.872 126.81V138.922H211.336V126.81H212.872ZM222.858 138.922H220.842L217.61 134.922L216.794 135.658V138.922H215.258V126.81H216.794V133.818L220.634 130.346H222.714L218.698 133.946L222.858 138.922Z" fill="#6E6E77"/>
<rect width="110" height="110" rx="26" transform="matrix(1 0 0 -1 150.68 271.219)" fill="#EFF1F4"/>
<rect width="110" height="110" rx="26" transform="matrix(1 0 0 -1 150.68 271.219)" fill="#F2F6FB"/>
<rect x="0.75" y="-0.75" width="108.5" height="108.5" rx="25.25" transform="matrix(1 0 0 -1 150.68 269.719)" stroke="url(#paint0_diamond_159:21921)" stroke-opacity="0.46" stroke-width="1.5"/>
<path d="M240.697 260.297L234.813 246.209C234.138 244.595 235.715 242.954 237.355 243.564L251.941 248.985C253.763 249.663 253.645 252.28 251.768 252.79L246.998 254.086C246.297 254.277 245.754 254.833 245.58 255.539L244.485 260.003C244.025 261.877 241.44 262.078 240.697 260.297Z" fill="#222222" stroke="white"/>
<path d="M201.825 224.26C201.301 224.26 200.802 224.055 200.435 223.698L194.084 217.517C193.323 216.776 193.323 215.55 194.084 214.809C194.845 214.069 196.105 214.069 196.866 214.809L201.825 219.637L213.109 208.654C213.87 207.913 215.129 207.913 215.89 208.654C216.651 209.395 216.651 210.621 215.89 211.361L203.216 223.698C202.849 224.055 202.35 224.26 201.825 224.26Z" fill="#1E2945"/>
<path d="M205.002 243.621C203.348 243.621 201.695 243.085 200.409 242.012L196.263 238.538C195.844 238.181 194.794 237.823 194.243 237.823H189.73C185.846 237.823 182.697 234.758 182.697 230.978V226.611C182.697 226.075 182.33 225.078 181.962 224.67L178.42 220.609C176.268 218.131 176.268 214.224 178.42 211.746L181.962 207.685C182.33 207.277 182.697 206.281 182.697 205.744V201.351C182.697 197.571 185.846 194.506 189.73 194.506H194.269C194.82 194.506 195.87 194.123 196.29 193.791L200.436 190.318C203.007 188.172 207.022 188.172 209.594 190.318L213.74 193.791C214.159 194.149 215.209 194.506 215.76 194.506H220.221C224.105 194.506 227.253 197.571 227.253 201.351V205.693C227.253 206.229 227.647 207.251 228.014 207.66L231.583 211.695C233.787 214.198 233.787 218.106 231.583 220.609L228.014 224.644C227.647 225.053 227.253 226.075 227.253 226.611V230.953C227.253 234.733 224.105 237.798 220.221 237.798H215.76C215.209 237.798 214.159 238.181 213.74 238.513L209.594 241.986C208.308 243.085 206.655 243.621 205.002 243.621ZM189.73 198.337C188.024 198.337 186.633 199.691 186.633 201.351V205.719C186.633 207.174 185.925 209.039 184.954 210.137L181.411 214.198C180.493 215.245 180.493 217.059 181.411 218.106L184.954 222.167C185.925 223.291 186.633 225.13 186.633 226.585V230.953C186.633 232.613 188.024 233.967 189.73 233.967H194.269C195.791 233.967 197.707 234.656 198.861 235.627L203.007 239.1C204.083 239.994 205.972 239.994 207.048 239.1L211.194 235.627C212.349 234.682 214.264 233.967 215.786 233.967H220.247C221.953 233.967 223.344 232.613 223.344 230.953V226.611C223.344 225.13 224.052 223.265 225.049 222.141L228.618 218.106C229.536 217.059 229.536 215.22 228.618 214.173L225.049 210.137C224.052 209.013 223.344 207.149 223.344 205.668V201.351C223.344 199.691 221.953 198.337 220.247 198.337H215.786C214.264 198.337 212.349 197.648 211.194 196.677L207.048 193.204C205.972 192.31 204.083 192.31 203.007 193.204L198.861 196.703C197.707 197.648 195.765 198.337 194.269 198.337H189.73Z" fill="#1E2945"/>
<path d="M177.786 294.015C177.786 292.287 178.384 290.826 179.578 289.631C180.784 288.426 182.224 287.823 183.898 287.823C185.573 287.823 187.013 288.426 188.218 289.631C189.424 290.837 190.026 292.277 190.026 293.951C190.026 295.626 189.424 297.066 188.218 298.271C187.013 299.455 185.557 300.047 183.85 300.047C182.133 300.047 180.693 299.466 179.53 298.303C178.368 297.141 177.786 295.711 177.786 294.015ZM188.362 293.967C188.362 292.666 187.93 291.578 187.066 290.703C186.202 289.829 185.146 289.391 183.898 289.391C182.661 289.391 181.61 289.834 180.746 290.719C179.882 291.605 179.45 292.687 179.45 293.967C179.45 295.237 179.877 296.314 180.73 297.199C181.573 298.063 182.629 298.495 183.898 298.495C185.168 298.495 186.224 298.063 187.066 297.199C187.93 296.335 188.362 295.258 188.362 293.967ZM195.506 300.063C194.386 300.063 193.49 299.733 192.818 299.071C192.157 298.41 191.826 297.519 191.826 296.399V291.279H193.362V296.351C193.362 297.055 193.549 297.615 193.922 298.031C194.306 298.437 194.834 298.639 195.506 298.639C196.178 298.639 196.706 298.437 197.09 298.031C197.474 297.615 197.666 297.055 197.666 296.351V291.279H199.186V296.399C199.186 297.541 198.855 298.437 198.194 299.087C197.543 299.738 196.647 300.063 195.506 300.063ZM206.478 298.159L207.054 299.343C206.435 299.823 205.672 300.063 204.766 300.063C203.87 300.063 203.187 299.786 202.718 299.231C202.259 298.677 202.03 297.882 202.03 296.847V292.591H200.51V291.279H202.046V288.239H203.55V291.279H206.59V292.591H203.55V296.959C203.55 298.09 204.014 298.655 204.942 298.655C205.443 298.655 205.955 298.49 206.478 298.159ZM209.818 287.743V299.855H208.282V287.743H209.818ZM213.004 290.063C212.684 290.063 212.417 289.962 212.204 289.759C211.99 289.546 211.884 289.279 211.884 288.959C211.884 288.65 211.99 288.394 212.204 288.191C212.417 287.989 212.684 287.887 213.004 287.887C213.302 287.887 213.558 287.994 213.772 288.207C213.985 288.41 214.092 288.661 214.092 288.959C214.092 289.279 213.985 289.546 213.772 289.759C213.558 289.962 213.302 290.063 213.004 290.063ZM213.74 291.279V299.855H212.204V291.279H213.74ZM217.661 299.855H216.125V291.279H217.629V292.495C218.173 291.535 219.08 291.055 220.349 291.055C221.309 291.055 222.115 291.365 222.765 291.983C223.416 292.602 223.741 293.493 223.741 294.655V299.855H222.221V295.087C222.221 294.266 222.019 293.626 221.613 293.167C221.219 292.709 220.691 292.479 220.029 292.479C219.336 292.479 218.765 292.725 218.317 293.215C217.88 293.717 217.661 294.346 217.661 295.103V299.855ZM233.984 295.407C233.984 295.514 233.968 295.775 233.936 296.191H227.104C227.243 296.949 227.563 297.546 228.064 297.983C228.565 298.421 229.248 298.639 230.112 298.639C230.624 298.639 231.152 298.554 231.696 298.383C232.24 298.202 232.709 297.967 233.104 297.679L233.76 298.847C233.312 299.189 232.757 299.477 232.096 299.711C231.435 299.935 230.763 300.047 230.08 300.047C229.301 300.047 228.608 299.919 228 299.663C227.403 299.407 226.928 299.061 226.576 298.623C226.224 298.186 225.957 297.706 225.776 297.183C225.595 296.661 225.504 296.111 225.504 295.535C225.504 294.255 225.904 293.189 226.704 292.335C227.515 291.493 228.56 291.071 229.84 291.071C231.056 291.071 232.048 291.461 232.816 292.239C233.595 293.018 233.984 294.074 233.984 295.407ZM227.104 294.863H232.4C232.357 294.127 232.096 293.541 231.616 293.103C231.147 292.655 230.555 292.431 229.84 292.431C229.147 292.431 228.549 292.661 228.048 293.119C227.547 293.567 227.232 294.149 227.104 294.863Z" fill="#6E6E77"/>
<rect x="1" y="-1" width="108" height="108" rx="25" transform="matrix(1 0 0 -1 301.68 109.219)" fill="#195BFF" fill-opacity="0.05" stroke="#195BFF" stroke-width="2"/>
<path opacity="0.34" d="M347.39 55.7512L353.545 61.932L365.881 49.5703" stroke="#195BFF" stroke-width="5" stroke-linecap="round" stroke-linejoin="round"/>
<path d="M353.443 31.3592C355.205 29.8523 358.091 29.8523 359.879 31.3592L363.915 34.8327C364.681 35.4968 366.111 36.0331 367.133 36.0331H371.475C374.182 36.0331 376.404 38.2552 376.404 40.9625V45.3044C376.404 46.3005 376.94 47.7563 377.605 48.5225L381.078 52.558C382.585 54.3203 382.585 57.2064 381.078 58.9942L377.605 63.0297C376.94 63.7959 376.404 65.2262 376.404 66.2478V70.5897C376.404 73.297 374.182 75.5191 371.475 75.5191H367.133C366.137 75.5191 364.681 76.0554 363.915 76.7195L359.879 80.193C358.117 81.6999 355.231 81.6999 353.443 80.193L349.408 76.7195C348.641 76.0554 347.211 75.5191 346.189 75.5191H341.771C339.064 75.5191 336.842 73.297 336.842 70.5897V66.2223C336.842 65.2262 336.305 63.7959 335.667 63.0297L332.219 58.9687C330.737 57.2064 330.737 54.3458 332.219 52.5835L335.667 48.5225C336.305 47.7563 336.842 46.326 336.842 45.3299V40.9369C336.842 38.2296 339.064 36.0076 341.771 36.0076H346.189C347.186 36.0076 348.641 35.4712 349.408 34.8072L353.443 31.3592Z" stroke="#195BFF" stroke-width="4" stroke-linecap="round" stroke-linejoin="round"/>
<path d="M322.405 138.918V129.382H319.029V127.094H328.181V129.382H324.805V138.918H322.405ZM332.861 138.902H330.893L327.917 130.198H330.285L332.029 135.91L333.997 130.198H335.581L337.613 135.91L339.309 130.198H341.677L338.733 138.902H336.765L334.797 133.446L332.861 138.902ZM342.115 134.55C342.115 133.259 342.552 132.177 343.427 131.302C344.312 130.406 345.432 129.958 346.787 129.958C348.141 129.958 349.261 130.406 350.147 131.302C351.021 132.177 351.459 133.259 351.459 134.55C351.459 135.851 351.021 136.939 350.147 137.814C349.261 138.699 348.141 139.142 346.787 139.142C345.432 139.142 344.312 138.699 343.427 137.814C342.552 136.939 342.115 135.851 342.115 134.55ZM345.059 136.326C345.517 136.806 346.093 137.046 346.787 137.046C347.459 137.046 348.029 136.806 348.499 136.326C348.968 135.825 349.203 135.233 349.203 134.55C349.203 133.867 348.968 133.281 348.499 132.79C348.029 132.31 347.459 132.07 346.787 132.07C346.093 132.07 345.517 132.31 345.059 132.79C344.6 133.259 344.371 133.846 344.371 134.55C344.371 135.243 344.6 135.835 345.059 136.326ZM359.045 138.918V129.382H355.669V127.094H364.821V129.382H361.445V138.918H359.045ZM364.255 134.55C364.255 133.259 364.693 132.177 365.567 131.302C366.453 130.406 367.573 129.958 368.927 129.958C370.282 129.958 371.402 130.406 372.287 131.302C373.162 132.177 373.599 133.259 373.599 134.55C373.599 135.851 373.162 136.939 372.287 137.814C371.402 138.699 370.282 139.142 368.927 139.142C367.573 139.142 366.453 138.699 365.567 137.814C364.693 136.939 364.255 135.851 364.255 134.55ZM367.199 136.326C367.658 136.806 368.234 137.046 368.927 137.046C369.599 137.046 370.17 136.806 370.639 136.326C371.109 135.825 371.343 135.233 371.343 134.55C371.343 133.867 371.109 133.281 370.639 132.79C370.17 132.31 369.599 132.07 368.927 132.07C368.234 132.07 367.658 132.31 367.199 132.79C366.741 133.259 366.511 133.846 366.511 134.55C366.511 135.243 366.741 135.835 367.199 136.326ZM377.444 138.918H375.188V130.198H377.396V131.414C377.631 130.977 377.993 130.625 378.484 130.358C378.975 130.091 379.524 129.958 380.132 129.958C381.081 129.958 381.887 130.273 382.548 130.902C383.209 131.531 383.54 132.427 383.54 133.59V138.918H381.284V134.198C381.284 133.515 381.119 132.987 380.788 132.614C380.457 132.23 380.009 132.038 379.444 132.038C378.847 132.038 378.361 132.246 377.988 132.662C377.625 133.067 377.444 133.595 377.444 134.246V138.918ZM393.933 134.358C393.933 134.625 393.907 134.955 393.853 135.35H387.309C387.629 136.587 388.477 137.206 389.853 137.206C390.867 137.206 391.805 136.913 392.669 136.326L393.565 137.91C392.456 138.71 391.187 139.11 389.757 139.11C388.232 139.11 387.059 138.667 386.237 137.782C385.427 136.907 385.021 135.83 385.021 134.55C385.021 133.217 385.443 132.123 386.285 131.27C387.128 130.406 388.221 129.974 389.565 129.974C390.835 129.974 391.88 130.369 392.701 131.158C393.523 131.947 393.933 133.014 393.933 134.358ZM389.565 131.846C389 131.846 388.515 132.011 388.109 132.342C387.715 132.662 387.448 133.105 387.309 133.67H391.741C391.635 133.105 391.389 132.662 391.005 132.342C390.621 132.011 390.141 131.846 389.565 131.846Z" fill="#1E2945"/>
<rect x="0.75" y="-0.75" width="108.5" height="108.5" rx="27.25" transform="matrix(1 0 0 -1 301.633 269.664)" stroke="#E6EAF3" stroke-width="1.5"/>
<path d="M346.843 216.165L353.083 222.346L365.588 209.984" stroke="#1E2945" stroke-width="5" stroke-linecap="round" stroke-linejoin="round"/>
<path d="M336.124 201.351C336.124 198.644 338.377 196.422 341.121 196.422H345.6C346.636 196.422 348.086 195.885 348.863 195.247L352.953 191.799C354.766 190.292 357.691 190.292 359.452 191.799L363.543 195.247C364.319 195.885 365.795 196.422 366.831 196.422H371.232C373.976 196.422 376.229 198.644 376.229 201.351V205.693C376.229 206.714 376.773 208.145 377.42 208.911L380.915 212.946C382.443 214.734 382.443 217.62 380.915 219.357L377.42 223.392C376.773 224.159 376.229 225.589 376.229 226.611V230.953C376.229 233.66 373.976 235.882 371.232 235.882H366.831C365.795 235.882 364.345 236.418 363.568 237.057L359.478 240.505C357.665 242.012 354.74 242.012 352.979 240.505L348.888 237.057C348.112 236.418 346.636 235.882 345.626 235.882H341.121C338.377 235.882 336.124 233.66 336.124 230.953V226.585C336.124 225.589 335.607 224.133 334.959 223.392L331.464 219.332C329.962 217.569 329.962 214.709 331.464 212.946L332.914 211.261" stroke="#1E2945" stroke-width="4" stroke-linecap="round" stroke-linejoin="round"/>
<path d="M337.566 293.391C338.27 293.583 338.814 293.962 339.198 294.527C339.592 295.082 339.79 295.727 339.79 296.463C339.79 297.391 339.464 298.186 338.814 298.847C338.174 299.519 337.278 299.855 336.126 299.855H331.246V288.031H335.918C336.942 288.031 337.736 288.33 338.302 288.927C338.878 289.514 339.166 290.202 339.166 290.991C339.166 291.535 339.022 292.026 338.734 292.463C338.446 292.901 338.056 293.21 337.566 293.391ZM335.71 289.519H332.83V292.815H335.662C336.227 292.815 336.68 292.65 337.022 292.319C337.363 291.978 337.534 291.567 337.534 291.087C337.534 290.65 337.363 290.282 337.022 289.983C336.691 289.674 336.254 289.519 335.71 289.519ZM332.83 298.351H335.87C336.574 298.351 337.123 298.154 337.518 297.759C337.934 297.365 338.142 296.895 338.142 296.351C338.142 295.765 337.928 295.274 337.502 294.879C337.086 294.474 336.52 294.271 335.806 294.271H332.83V298.351ZM343.228 299.855H341.692V291.279H343.148V292.543C343.649 291.551 344.47 291.055 345.612 291.055C345.921 291.055 346.257 291.098 346.62 291.183L346.476 292.671C346.166 292.575 345.868 292.527 345.58 292.527C344.876 292.527 344.305 292.767 343.868 293.247C343.441 293.727 343.228 294.415 343.228 295.311V299.855ZM351.488 300.063C350.176 300.063 349.094 299.631 348.24 298.767C347.398 297.893 346.976 296.821 346.976 295.551C346.976 294.282 347.398 293.221 348.24 292.367C349.083 291.493 350.166 291.055 351.488 291.055C352.79 291.055 353.862 291.493 354.704 292.367C355.558 293.253 355.984 294.314 355.984 295.551C355.984 296.81 355.558 297.882 354.704 298.767C353.851 299.631 352.779 300.063 351.488 300.063ZM354.448 295.551C354.448 294.709 354.16 293.989 353.584 293.391C353.008 292.783 352.31 292.479 351.488 292.479C350.667 292.479 349.968 292.783 349.392 293.391C348.816 293.989 348.528 294.709 348.528 295.551C348.528 296.405 348.816 297.135 349.392 297.743C349.968 298.351 350.667 298.655 351.488 298.655C352.31 298.655 353.008 298.351 353.584 297.743C354.16 297.135 354.448 296.405 354.448 295.551ZM365.417 299.855H363.401L360.169 295.855L359.353 296.591V299.855H357.817V287.743H359.353V294.751L363.193 291.279H365.273L361.257 294.879L365.417 299.855ZM373.988 295.407C373.988 295.514 373.972 295.775 373.94 296.191H367.108C367.247 296.949 367.567 297.546 368.068 297.983C368.569 298.421 369.252 298.639 370.116 298.639C370.628 298.639 371.156 298.554 371.7 298.383C372.244 298.202 372.713 297.967 373.108 297.679L373.764 298.847C373.316 299.189 372.761 299.477 372.1 299.711C371.439 299.935 370.767 300.047 370.084 300.047C369.305 300.047 368.612 299.919 368.004 299.663C367.407 299.407 366.932 299.061 366.58 298.623C366.228 298.186 365.961 297.706 365.78 297.183C365.599 296.661 365.508 296.111 365.508 295.535C365.508 294.255 365.908 293.189 366.708 292.335C367.519 291.493 368.564 291.071 369.844 291.071C371.06 291.071 372.052 291.461 372.82 292.239C373.599 293.018 373.988 294.074 373.988 295.407ZM367.108 294.863H372.404C372.361 294.127 372.1 293.541 371.62 293.103C371.151 292.655 370.559 292.431 369.844 292.431C369.151 292.431 368.553 292.661 368.052 293.119C367.551 293.567 367.236 294.149 367.108 294.863ZM377.337 299.855H375.801V291.279H377.305V292.495C377.849 291.535 378.756 291.055 380.025 291.055C380.985 291.055 381.791 291.365 382.441 291.983C383.092 292.602 383.417 293.493 383.417 294.655V299.855H381.897V295.087C381.897 294.266 381.695 293.626 381.289 293.167C380.895 292.709 380.367 292.479 379.705 292.479C379.012 292.479 378.441 292.725 377.993 293.215C377.556 293.717 377.337 294.346 377.337 295.103V299.855Z" fill="#6E6E77"/>
<defs>
<radialGradient id="paint0_diamond_159:21921" cx="0" cy="0" r="1" gradientUnits="userSpaceOnUse" gradientTransform="translate(137.865 -36.3052) rotate(122.14) scale(317.325 333.057)">
<stop stop-color="#B6C2DA"/>
<stop offset="1" stop-color="#7A8599" stop-opacity="0"/>
</radialGradient>
</defs>
</svg>
