<svg width="504" height="505" viewBox="0 0 504 505" fill="none" xmlns="http://www.w3.org/2000/svg">
<rect x="1" y="1.25146" width="501.939" height="501.939" rx="21" stroke="#3F3F40" stroke-opacity="0.05" stroke-width="2"/>
<path d="M63.7768 0.251953V504.191M21.9562 0.251953V504.191M84.6872 0.251953V504.191M42.8665 0.251953V504.191M147.418 0.251953V504.191M105.598 0.251953V504.191M168.329 0.251953V504.191M126.508 0.251953V504.191M231.06 0.251953V504.191M189.239 0.251953V504.191M251.97 0.251953V504.191M210.149 0.251953V504.191M314.701 0.251953V504.191M272.88 0.251953V504.191M335.611 0.251953V504.191M293.791 0.251953V504.191M398.342 0.251953V504.191M356.522 0.251953V504.191M419.253 0.251953V504.191M377.432 0.251953V504.191M481.984 0.251953V504.191M440.163 0.251953V504.191M461.073 0.251953V504.191" stroke="#3F3F40" stroke-opacity="0.05" stroke-width="2" stroke-miterlimit="1"/>
<path d="M503.94 64.0297H0.000976562M503.94 22.209H0.000976562M503.94 84.94H0.000976562M503.94 43.1193H0.000976562M503.94 147.671H0.000976562M503.94 105.85H0.000976562M503.94 168.581H0.000976562M503.94 126.761H0.000976562M503.94 231.312H0.000976562M503.94 189.492H0.000976562M503.94 252.223H0.000976562M503.94 210.402H0.000976562M503.94 314.954H0.000976562M503.94 273.133H0.000976562M503.94 335.864H0.000976562M503.94 294.043H0.000976562M503.94 398.595H0.000976562M503.94 356.774H0.000976562M503.94 419.505H0.000976562M503.94 377.685H0.000976562M503.94 482.236H0.000976562M503.94 440.416H0.000976562M503.94 461.326H0.000976562" stroke="#3F3F40" stroke-opacity="0.05" stroke-width="2"/>
<rect x="97.4935" y="98.5342" width="308" height="308" stroke="#2C7CF4" stroke-width="2"/>
<path d="M102.356 97.1973C101.618 94.4838 98.8193 92.8829 96.1058 93.6214C93.3923 94.36 91.7913 97.1584 92.5299 99.8719C93.2685 102.585 96.0669 104.186 98.7804 103.448C101.494 102.709 103.095 99.9108 102.356 97.1973Z" fill="white" stroke="#2C7CF4" stroke-width="1.6547"/>
<path d="M102.356 404.572C101.618 401.859 98.8193 400.258 96.1058 400.996C93.3923 401.735 91.7913 404.533 92.5299 407.247C93.2685 409.96 96.0669 411.561 98.7804 410.823C101.494 410.084 103.095 407.286 102.356 404.572Z" fill="white" stroke="#2C7CF4" stroke-width="1.6547"/>
<path d="M411.407 97.1973C410.669 94.4838 407.87 92.8829 405.157 93.6214C402.443 94.36 400.842 97.1584 401.581 99.8719C402.319 102.585 405.118 104.186 407.831 103.448C410.545 102.709 412.146 99.9108 411.407 97.1973Z" fill="white" stroke="#2C7CF4" stroke-width="1.6547"/>
<path d="M410.405 404.572C409.667 401.859 406.868 400.258 404.155 400.996C401.441 401.735 399.84 404.533 400.579 407.247C401.317 409.96 404.116 411.561 406.829 410.823C409.543 410.084 411.144 407.286 410.405 404.572Z" fill="white" stroke="#2C7CF4" stroke-width="1.6547"/>
<path opacity="0.34" d="M204.743 252.534L235.872 283.792L298.259 221.275" stroke="#1E2945" stroke-width="23" stroke-linecap="round" stroke-linejoin="round"/>
<path d="M235.355 129.178C244.268 121.557 258.864 121.557 267.905 129.178L288.314 146.745C292.189 150.103 299.422 152.816 304.589 152.816H326.547C340.239 152.816 351.476 164.053 351.476 177.745V199.703C351.476 204.741 354.189 212.103 357.547 215.978L375.114 236.386C382.734 245.299 382.734 259.895 375.114 268.936L357.547 289.345C354.189 293.22 351.476 300.453 351.476 305.62V327.578C351.476 341.27 340.239 352.507 326.547 352.507H304.589C299.551 352.507 292.189 355.22 288.314 358.578L267.905 376.145C258.993 383.765 244.397 383.765 235.355 376.145L214.947 358.578C211.072 355.22 203.839 352.507 198.672 352.507H176.326C162.634 352.507 151.397 341.27 151.397 327.578V305.491C151.397 300.453 148.684 293.22 145.455 289.345L128.018 268.807C120.526 259.895 120.526 245.428 128.018 236.516L145.455 215.978C148.684 212.103 151.397 204.87 151.397 199.832V177.616C151.397 163.924 162.634 152.686 176.326 152.686H198.672C203.709 152.686 211.072 149.974 214.947 146.616L235.355 129.178Z" stroke="#1E2945" stroke-width="23" stroke-linecap="round" stroke-linejoin="round"/>
<path d="M45.5169 62.2188H47.9169V46.8107H53.1729V44.4827H40.2609V46.8107H45.5169V62.2188ZM58.4541 62.1947L61.9341 52.5707L65.4861 62.1947H67.4061L71.7021 49.3547H69.3021L66.3741 59.0027L62.7261 49.3547H61.1181L57.6141 59.0027L54.5661 49.3547H52.1421L56.5581 62.1947H58.4541ZM79.5051 62.5308C81.4491 62.5308 83.0571 61.8827 84.3291 60.5867C85.6011 59.2667 86.2491 57.6587 86.2491 55.7627C86.2491 53.8907 85.6011 52.3067 84.3291 50.9867C83.0571 49.6667 81.4491 49.0187 79.5051 49.0187C77.5371 49.0187 75.9051 49.6667 74.6331 50.9867C73.3611 52.2827 72.7371 53.8667 72.7371 55.7627C72.7371 57.6587 73.3611 59.2667 74.6331 60.5867C75.9051 61.8827 77.5371 62.5308 79.5051 62.5308ZM83.9451 55.7627C83.9451 57.0347 83.5131 58.1387 82.6491 59.0508C81.7851 59.9627 80.7291 60.4187 79.5051 60.4187C78.2811 60.4187 77.2251 59.9627 76.3611 59.0508C75.4971 58.1387 75.0651 57.0347 75.0651 55.7627C75.0651 54.4907 75.4971 53.4107 76.3611 52.5227C77.2251 51.6107 78.2811 51.1547 79.5051 51.1547C80.7291 51.1547 81.7851 51.6107 82.6491 52.5227C83.5131 53.4107 83.9451 54.4907 83.9451 55.7627ZM97.8997 62.2188H100.3V46.8107H105.556V44.4827H92.6437V46.8107H97.8997V62.2188ZM111.732 62.5308C113.676 62.5308 115.284 61.8827 116.556 60.5867C117.828 59.2667 118.476 57.6587 118.476 55.7627C118.476 53.8907 117.828 52.3067 116.556 50.9867C115.284 49.6667 113.676 49.0187 111.732 49.0187C109.764 49.0187 108.132 49.6667 106.86 50.9867C105.588 52.2827 104.964 53.8667 104.964 55.7627C104.964 57.6587 105.588 59.2667 106.86 60.5867C108.132 61.8827 109.764 62.5308 111.732 62.5308ZM116.172 55.7627C116.172 57.0347 115.74 58.1387 114.876 59.0508C114.012 59.9627 112.956 60.4187 111.732 60.4187C110.508 60.4187 109.452 59.9627 108.588 59.0508C107.724 58.1387 107.292 57.0347 107.292 55.7627C107.292 54.4907 107.724 53.4107 108.588 52.5227C109.452 51.6107 110.508 51.1547 111.732 51.1547C112.956 51.1547 114.012 51.6107 114.876 52.5227C115.74 53.4107 116.172 54.4907 116.172 55.7627ZM123.528 62.2188V55.0907C123.528 53.9387 123.864 53.0027 124.512 52.2587C125.184 51.5147 126.048 51.1547 127.08 51.1547C129.024 51.1547 130.368 52.5707 130.368 55.0667V62.2188H132.648V54.4187C132.648 52.6667 132.168 51.3467 131.184 50.4107C130.2 49.4747 129 49.0187 127.56 49.0187C125.664 49.0187 124.296 49.7387 123.48 51.1787V49.3547H121.224V62.2188H123.528ZM148.012 55.5467C148.012 53.5547 147.436 51.9707 146.26 50.7947C145.108 49.6187 143.62 49.0427 141.796 49.0427C139.876 49.0427 138.316 49.6667 137.092 50.9387C135.892 52.2107 135.292 53.7947 135.292 55.7387C135.292 59.0747 137.308 62.5068 142.156 62.5068C144.292 62.5068 146.404 61.6907 147.676 60.7067L146.692 58.9547C145.516 59.8187 143.74 60.3947 142.204 60.3947C139.516 60.3947 138.076 58.9067 137.692 56.7227H147.94C147.988 56.0987 148.012 55.7147 148.012 55.5467ZM137.692 54.7307C138.076 52.5947 139.684 51.0827 141.796 51.0827C143.908 51.0827 145.516 52.4987 145.636 54.7307H137.692Z" fill="#1E2945" fill-opacity="0.6"/>
</svg>
