<svg width="22" height="22" viewBox="0 0 22 22" fill="none" xmlns="http://www.w3.org/2000/svg">
<path d="M8.25004 17.1875H2.75004C1.87004 17.1875 1.14587 16.4633 1.14587 15.5833V6.41667C1.14587 5.53667 1.87004 4.8125 2.75004 4.8125H7.33337C9.23087 4.8125 10.7709 6.3525 10.7709 8.25C10.7709 9.19417 10.3858 10.0467 9.77168 10.67C10.9083 11.2292 11.6875 12.4025 11.6875 13.75C11.6875 15.6475 10.1475 17.1875 8.25004 17.1875ZM2.52087 11.6875V15.5833C2.52087 15.7117 2.62171 15.8125 2.75004 15.8125H8.25004C9.38671 15.8125 10.3125 14.8867 10.3125 13.75C10.3125 12.6133 9.38671 11.6875 8.25004 11.6875H2.52087ZM2.52087 10.3125H7.33337C8.47004 10.3125 9.39587 9.38667 9.39587 8.25C9.39587 7.11333 8.47004 6.1875 7.33337 6.1875H2.75004C2.62171 6.1875 2.52087 6.28833 2.52087 6.41667V10.3125Z" fill="#9BA4BE"/>
<path d="M18.0309 17.1873H16.5C14.0984 17.1873 12.1459 15.2348 12.1459 12.8332C12.1459 10.4315 14.0984 8.479 16.5 8.479C18.9017 8.479 20.8542 10.4315 20.8542 12.8332C20.8542 13.209 20.5425 13.5207 20.1667 13.5207H13.6034C13.9151 14.8315 15.0975 15.8123 16.5 15.8123H18.0309C18.4067 15.8123 18.7184 16.124 18.7184 16.4998C18.7184 16.8757 18.4067 17.1873 18.0309 17.1873ZM13.6034 12.1457H19.4059C19.0942 10.8348 17.9117 9.854 16.5092 9.854C15.1067 9.854 13.9151 10.8348 13.6034 12.1457Z" fill="#9BA4BE"/>
<path d="M17.875 7.5625H15.125C14.7492 7.5625 14.4375 7.25083 14.4375 6.875C14.4375 6.49917 14.7492 6.1875 15.125 6.1875H17.875C18.2508 6.1875 18.5625 6.49917 18.5625 6.875C18.5625 7.25083 18.2508 7.5625 17.875 7.5625Z" fill="#9BA4BE"/>
</svg>
