<svg width="413" height="308" viewBox="0 0 413 308" fill="none" xmlns="http://www.w3.org/2000/svg">
<rect x="0.75" y="-0.75" width="110.179" height="108.5" rx="27.25" transform="matrix(1 0 0 -1 0 109.03)" stroke="#303034" stroke-width="1.5"/>
<path d="M45.5474 55.53L51.8713 61.7108L64.5454 49.3491" stroke="white" stroke-width="5" stroke-linecap="round" stroke-linejoin="round"/>
<path d="M51.7664 31.1385C53.577 29.6316 56.5421 29.6316 58.379 31.1385L62.525 34.612C63.3122 35.2761 64.7816 35.8124 65.8313 35.8124H70.2921C73.0736 35.8124 75.3565 38.0345 75.3565 40.7418V45.0837C75.3565 46.0798 75.9076 47.5356 76.5898 48.3018L80.1585 52.3373C81.7067 54.0996 81.7067 56.9857 80.1585 58.7735L76.5898 62.809C75.9076 63.5752 75.3565 65.0055 75.3565 66.0271V70.369C75.3565 73.0763 73.0736 75.2984 70.2921 75.2984H65.8313C64.8079 75.2984 63.3122 75.8347 62.525 76.4988L58.379 79.9723C56.5684 81.4792 53.6032 81.4792 51.7664 79.9723L47.6204 76.4988C46.8332 75.8347 45.3637 75.2984 44.3141 75.2984H39.7745C36.993 75.2984 34.7101 73.0763 34.7101 70.369V66.0016C34.7101 65.0055 34.159 63.5752 33.503 62.809L29.9606 58.748C28.4386 56.9857 28.4386 54.1251 29.9606 52.3628L33.503 48.3018C34.159 47.5356 34.7101 46.1053 34.7101 45.1092V40.7162C34.7101 38.0089 36.993 35.7869 39.7745 35.7869H44.3141C45.3375 35.7869 46.8332 35.2505 47.6204 34.5865L51.7664 31.1385Z" stroke="white" stroke-width="4" stroke-linecap="round" stroke-linejoin="round"/>
<path d="M39.44 138.7V137.148H33.088V126.876H31.488V138.7H39.44ZM41.6246 128.908C42.2166 128.908 42.7126 128.444 42.7126 127.804C42.7126 127.212 42.2166 126.732 41.6246 126.732C40.9846 126.732 40.5046 127.18 40.5046 127.804C40.5046 128.444 40.9846 128.908 41.6246 128.908ZM42.3606 130.124H40.8246V138.7H42.3606V130.124ZM46.2825 138.7V133.948C46.2825 133.18 46.5065 132.556 46.9385 132.06C47.3865 131.564 47.9625 131.324 48.6505 131.324C49.9465 131.324 50.8425 132.268 50.8425 133.932V138.7H52.3625V133.5C52.3625 132.332 52.0425 131.452 51.3865 130.828C50.7305 130.204 49.9305 129.9 48.9705 129.9C47.7065 129.9 46.7945 130.38 46.2505 131.34V130.124H44.7465V138.7H46.2825ZM62.6051 134.252C62.6051 132.924 62.2211 131.868 61.4371 131.084C60.6691 130.3 59.6771 129.916 58.4611 129.916C57.1811 129.916 56.1411 130.332 55.3251 131.18C54.5251 132.028 54.1251 133.084 54.1251 134.38C54.1251 136.604 55.4691 138.892 58.7011 138.892C60.1251 138.892 61.5331 138.348 62.3811 137.692L61.7251 136.524C60.9411 137.1 59.7571 137.484 58.7331 137.484C56.9411 137.484 55.9811 136.492 55.7251 135.036H62.5571C62.5891 134.62 62.6051 134.364 62.6051 134.252ZM55.7251 133.708C55.9811 132.284 57.0531 131.276 58.4611 131.276C59.8691 131.276 60.9411 132.22 61.0211 133.708H55.7251ZM71.2024 131.372C70.4024 130.396 69.3944 129.916 68.1784 129.916C66.9464 129.916 65.9224 130.332 65.1064 131.18C64.2904 132.012 63.8904 133.068 63.8904 134.348C63.8904 135.644 64.2904 136.716 65.1064 137.596C65.9224 138.476 66.9464 138.908 68.1784 138.908C69.4264 138.908 70.4344 138.428 71.2024 137.484V138.7H72.6744V130.124H71.2024V131.372ZM71.2984 134.396C71.2984 135.276 71.0264 136.012 70.4824 136.604C69.9384 137.196 69.2344 137.5 68.3544 137.5C67.4744 137.5 66.7704 137.196 66.2424 136.604C65.7144 136.012 65.4424 135.276 65.4424 134.412C65.4424 133.548 65.7144 132.812 66.2424 132.22C66.7704 131.628 67.4744 131.324 68.3544 131.324C69.2344 131.324 69.9384 131.628 70.4824 132.22C71.0264 132.812 71.2984 133.548 71.2984 134.396ZM76.595 138.7V134.156C76.595 132.316 77.587 131.372 78.947 131.372C79.235 131.372 79.539 131.42 79.843 131.516L79.987 130.028C79.651 129.948 79.315 129.9 78.979 129.9C77.843 129.9 77.011 130.396 76.515 131.388V130.124H75.059V138.7H76.595Z" fill="#6E6E77"/>
<rect x="0.75" y="-0.75" width="109.34" height="108.5" rx="27.25" transform="matrix(1 0 0 -1 0.046875 269.444)" stroke="#303034" stroke-width="1.5"/>
<path d="M80.135 212.728L76.5663 208.692C75.884 207.926 75.333 206.496 75.333 205.474V201.132C75.333 198.425 73.0501 196.203 70.2686 196.203H65.8077C64.7843 196.203 63.2886 195.667 62.5014 195.003L58.3554 191.529C56.5448 190.022 53.5796 190.022 51.7428 191.529L47.6231 195.028C46.8358 195.667 45.3401 196.203 44.3168 196.203H39.7772C36.9957 196.203 34.7128 198.425 34.7128 201.132V205.5C34.7128 206.496 34.1617 207.926 33.5057 208.692L29.9632 212.753C28.4413 214.516 28.4413 217.376 29.9632 219.139L33.5057 223.2C34.1617 223.966 34.7128 225.396 34.7128 226.392V230.76C34.7128 233.467 36.9957 235.689 39.7772 235.689H44.3168C45.3401 235.689 46.8358 236.225 47.6231 236.889L51.7691 240.363C53.5796 241.87 56.5448 241.87 58.3816 240.363L62.5276 236.889C63.3149 236.225 64.7843 235.689 65.8339 235.689H70.2948C73.0763 235.689 75.3592 233.467 75.3592 230.76V226.418C75.3592 225.422 75.9103 223.966 76.5925 223.2L80.1612 219.164C81.6832 217.402 81.6832 214.49 80.135 212.728ZM65.9651 211.119L53.291 223.455C52.9236 223.813 52.4251 224.017 51.9003 224.017C51.3754 224.017 50.8769 223.813 50.5095 223.455L44.1593 217.274C43.3983 216.533 43.3983 215.308 44.1593 214.567C44.9203 213.826 46.1798 213.826 46.9408 214.567L51.9003 219.394L63.1836 208.412C63.9446 207.671 65.2042 207.671 65.9651 208.412C66.7261 209.152 66.7261 210.378 65.9651 211.119Z" fill="white"/>
<path d="M45.4467 293.172C46.4227 292.804 47.0467 291.844 47.0467 290.772C47.0467 289.988 46.7587 289.3 46.1827 288.708C45.6227 288.116 44.8227 287.812 43.7987 287.812H39.1267V299.636H44.0067C45.1587 299.636 46.0547 299.3 46.6947 298.628C47.3507 297.956 47.6707 297.156 47.6707 296.244C47.6707 294.82 46.9027 293.572 45.4467 293.172ZM43.5907 289.3C44.7267 289.3 45.4147 290.036 45.4147 290.868C45.4147 291.78 44.7107 292.596 43.5427 292.596H40.7107V289.3H43.5907ZM40.7107 298.132V294.052H43.6867C45.1747 294.052 46.0227 294.996 46.0227 296.132C46.0227 296.66 45.8147 297.14 45.3987 297.54C44.9987 297.94 44.4387 298.132 43.7507 298.132H40.7107ZM53.5567 299.844C54.8527 299.844 55.9247 299.412 56.7727 298.548C57.6207 297.668 58.0527 296.596 58.0527 295.332C58.0527 294.084 57.6207 293.028 56.7727 292.148C55.9247 291.268 54.8527 290.836 53.5567 290.836C52.2447 290.836 51.1567 291.268 50.3087 292.148C49.4607 293.012 49.0447 294.068 49.0447 295.332C49.0447 296.596 49.4607 297.668 50.3087 298.548C51.1567 299.412 52.2447 299.844 53.5567 299.844ZM56.5167 295.332C56.5167 296.18 56.2287 296.916 55.6527 297.524C55.0767 298.132 54.3727 298.436 53.5567 298.436C52.7407 298.436 52.0367 298.132 51.4607 297.524C50.8847 296.916 50.5967 296.18 50.5967 295.332C50.5967 294.484 50.8847 293.764 51.4607 293.172C52.0367 292.564 52.7407 292.26 53.5567 292.26C54.3727 292.26 55.0767 292.564 55.6527 293.172C56.2287 293.764 56.5167 294.484 56.5167 295.332ZM61.4212 287.524H59.8852V299.636H61.4212V287.524ZM70.575 292.308C69.791 291.332 68.799 290.852 67.567 290.852C66.335 290.852 65.311 291.284 64.495 292.164C63.679 293.028 63.279 294.084 63.279 295.332C63.279 296.596 63.679 297.668 64.495 298.548C65.311 299.412 66.351 299.844 67.599 299.844C68.831 299.844 69.823 299.38 70.575 298.436V299.636H72.111V287.524H70.575V292.308ZM70.687 295.332C70.687 296.212 70.415 296.948 69.871 297.54C69.343 298.132 68.639 298.436 67.759 298.436C66.879 298.436 66.175 298.132 65.631 297.54C65.103 296.948 64.831 296.212 64.831 295.332C64.831 294.484 65.103 293.748 65.631 293.156C66.175 292.564 66.879 292.26 67.759 292.26C68.639 292.26 69.343 292.564 69.871 293.156C70.415 293.748 70.687 294.484 70.687 295.332Z" fill="#6E6E77"/>
<rect x="0.75" y="-0.75" width="110.179" height="108.5" rx="27.25" transform="matrix(1 0 0 -1 150 109.03)" stroke="#303034" stroke-width="1.5"/>
<path opacity="0.4" d="M202.939 31.1395C204.773 29.6326 207.778 29.6326 209.639 31.1395L213.841 34.613C214.638 35.277 216.127 35.8134 217.191 35.8134H221.711C224.53 35.8134 226.843 38.0354 226.843 40.7428V45.0847C226.843 46.0808 227.402 47.5366 228.093 48.3028L231.709 52.3382C233.278 54.1006 233.278 56.9867 231.709 58.7745L228.093 62.8099C227.402 63.5762 226.843 65.0064 226.843 66.0281V70.37C226.843 73.0773 224.53 75.2993 221.711 75.2993H217.191C216.154 75.2993 214.638 75.8357 213.841 76.4998L209.639 79.9733C207.805 81.4802 204.8 81.4802 202.939 79.9733L198.737 76.4998C197.94 75.8357 196.451 75.2993 195.387 75.2993H190.787C187.968 75.2993 185.655 73.0773 185.655 70.37V66.0025C185.655 65.0064 185.096 63.5762 184.432 62.8099L180.842 58.749C179.3 56.9867 179.3 54.1261 180.842 52.3638L184.432 48.3028C185.096 47.5366 185.655 46.1063 185.655 45.1102V40.7172C185.655 38.0099 187.968 35.7879 190.787 35.7879H195.387C196.424 35.7879 197.94 35.2515 198.737 34.5874L202.939 31.1395Z" fill="white"/>
<path d="M203.044 63.6257C202.513 63.6257 202.007 63.4214 201.635 63.0638L195.2 56.883C194.429 56.1423 194.429 54.9163 195.2 54.1757C195.971 53.435 197.248 53.435 198.019 54.1757L203.044 59.0029L214.478 48.0204C215.249 47.2797 216.526 47.2797 217.297 48.0204C218.068 48.761 218.068 49.987 217.297 50.7277L204.454 63.0638C204.081 63.4214 203.576 63.6257 203.044 63.6257Z" fill="white"/>
<path d="M197.695 132.236C198.671 131.868 199.295 130.908 199.295 129.836C199.295 129.052 199.007 128.364 198.431 127.772C197.871 127.18 197.071 126.876 196.047 126.876H191.375V138.7H196.255C197.407 138.7 198.303 138.364 198.943 137.692C199.599 137.02 199.919 136.22 199.919 135.308C199.919 133.884 199.151 132.636 197.695 132.236ZM195.839 128.364C196.975 128.364 197.663 129.1 197.663 129.932C197.663 130.844 196.959 131.66 195.791 131.66H192.959V128.364H195.839ZM192.959 137.196V133.116H195.935C197.423 133.116 198.271 134.06 198.271 135.196C198.271 135.724 198.063 136.204 197.647 136.604C197.247 137.004 196.687 137.196 195.999 137.196H192.959ZM205.389 138.908C207.677 138.908 209.069 137.532 209.069 135.244V130.124H207.549V135.196C207.549 136.604 206.749 137.484 205.389 137.484C204.045 137.484 203.245 136.604 203.245 135.196V130.124H201.709V135.244C201.709 137.484 203.149 138.908 205.389 138.908ZM212.872 126.588H211.336V138.7H212.872V126.588ZM222.858 138.7L218.698 133.724L222.714 130.124H220.634L216.794 133.596V126.588H215.258V138.7H216.794V135.436L217.61 134.7L220.842 138.7H222.858Z" fill="#6E6E77"/>
<rect x="0.75" y="-0.75" width="108.5" height="108.5" rx="27.25" transform="matrix(1 0 0 -1 151.047 269.03)" fill="#3E3E45"/>
<rect x="0.75" y="-0.75" width="108.5" height="108.5" rx="27.25" transform="matrix(1 0 0 -1 151.047 269.03)" stroke="#303034" stroke-width="1.5"/>
<rect x="0.75" y="-0.75" width="108.5" height="108.5" rx="27.25" transform="matrix(1 0 0 -1 151.047 269.03)" stroke="url(#paint0_diamond_160:15742)" stroke-opacity="0.66" stroke-width="1.5"/>
<path d="M240.697 260.078L234.813 245.99C234.138 244.375 235.715 242.735 237.355 243.344L251.941 248.766C253.763 249.443 253.645 252.06 251.768 252.57L246.998 253.866C246.297 254.057 245.754 254.614 245.58 255.32L244.485 259.784C244.025 261.657 241.44 261.858 240.697 260.078Z" fill="#222222" stroke="white"/>
<path d="M201.825 224.04C201.301 224.04 200.802 223.835 200.435 223.478L194.084 217.297C193.323 216.556 193.323 215.33 194.084 214.59C194.845 213.849 196.105 213.849 196.866 214.59L201.825 219.417L213.109 208.434C213.87 207.694 215.129 207.694 215.89 208.434C216.651 209.175 216.651 210.401 215.89 211.142L203.216 223.478C202.849 223.835 202.35 224.04 201.825 224.04Z" fill="white"/>
<path d="M205.002 243.401C203.348 243.401 201.695 242.865 200.409 241.792L196.263 238.319C195.844 237.961 194.794 237.604 194.243 237.604H189.73C185.846 237.604 182.697 234.539 182.697 230.759V226.391C182.697 225.855 182.33 224.859 181.962 224.45L178.42 220.389C176.268 217.912 176.268 214.004 178.42 211.526L181.962 207.466C182.33 207.057 182.697 206.061 182.697 205.524V201.131C182.697 197.351 185.846 194.287 189.73 194.287H194.269C194.82 194.287 195.87 193.903 196.29 193.571L200.436 190.098C203.007 187.952 207.022 187.952 209.594 190.098L213.74 193.571C214.159 193.929 215.209 194.287 215.76 194.287H220.221C224.105 194.287 227.253 197.351 227.253 201.131V205.473C227.253 206.01 227.647 207.031 228.014 207.44L231.583 211.475C233.787 213.978 233.787 217.886 231.583 220.389L228.014 224.425C227.647 224.833 227.253 225.855 227.253 226.391V230.733C227.253 234.513 224.105 237.578 220.221 237.578H215.76C215.209 237.578 214.159 237.961 213.74 238.293L209.594 241.767C208.308 242.865 206.655 243.401 205.002 243.401ZM189.73 198.118C188.024 198.118 186.633 199.471 186.633 201.131V205.499C186.633 206.955 185.925 208.819 184.954 209.917L181.411 213.978C180.493 215.026 180.493 216.839 181.411 217.886L184.954 221.947C185.925 223.071 186.633 224.91 186.633 226.366V230.733C186.633 232.393 188.024 233.747 189.73 233.747H194.269C195.791 233.747 197.707 234.437 198.861 235.407L203.007 238.881C204.083 239.775 205.972 239.775 207.048 238.881L211.194 235.407C212.349 234.462 214.264 233.747 215.786 233.747H220.247C221.953 233.747 223.344 232.393 223.344 230.733V226.391C223.344 224.91 224.052 223.045 225.049 221.922L228.618 217.886C229.536 216.839 229.536 215 228.618 213.953L225.049 209.917C224.052 208.794 223.344 206.929 223.344 205.448V201.131C223.344 199.471 221.953 198.118 220.247 198.118H215.786C214.264 198.118 212.349 197.428 211.194 196.457L207.048 192.984C205.972 192.09 204.083 192.09 203.007 192.984L198.861 196.483C197.707 197.428 195.765 198.118 194.269 198.118H189.73Z" fill="white"/>
<path d="M177.786 293.796C177.786 295.492 178.362 296.916 179.53 298.084C180.698 299.252 182.138 299.828 183.85 299.828C185.562 299.828 187.018 299.236 188.218 298.052C189.418 296.852 190.026 295.412 190.026 293.732C190.026 292.052 189.418 290.612 188.218 289.412C187.018 288.212 185.578 287.604 183.898 287.604C182.218 287.604 180.778 288.212 179.578 289.412C178.378 290.612 177.786 292.084 177.786 293.796ZM188.362 293.748C188.362 295.044 187.93 296.116 187.066 296.98C186.218 297.844 185.162 298.276 183.898 298.276C182.634 298.276 181.578 297.844 180.73 296.98C179.882 296.1 179.45 295.028 179.45 293.748C179.45 292.452 179.882 291.38 180.746 290.5C181.61 289.62 182.666 289.172 183.898 289.172C185.146 289.172 186.202 289.604 187.066 290.484C187.93 291.364 188.362 292.452 188.362 293.748ZM195.506 299.844C197.794 299.844 199.186 298.468 199.186 296.18V291.06H197.666V296.132C197.666 297.54 196.866 298.42 195.506 298.42C194.162 298.42 193.362 297.54 193.362 296.132V291.06H191.826V296.18C191.826 298.42 193.266 299.844 195.506 299.844ZM206.478 297.94C205.95 298.276 205.438 298.436 204.942 298.436C204.014 298.436 203.55 297.876 203.55 296.74V292.372H206.59V291.06H203.55V288.02H202.046V291.06H200.51V292.372H202.03V296.628C202.03 298.676 202.958 299.844 204.766 299.844C205.678 299.844 206.43 299.604 207.054 299.124L206.478 297.94ZM209.818 287.524H208.282V299.636H209.818V287.524ZM213.004 289.844C213.596 289.844 214.092 289.38 214.092 288.74C214.092 288.148 213.596 287.668 213.004 287.668C212.364 287.668 211.884 288.116 211.884 288.74C211.884 289.38 212.364 289.844 213.004 289.844ZM213.74 291.06H212.204V299.636H213.74V291.06ZM217.661 299.636V294.884C217.661 294.116 217.885 293.492 218.317 292.996C218.765 292.5 219.341 292.26 220.029 292.26C221.325 292.26 222.221 293.204 222.221 294.868V299.636H223.741V294.436C223.741 293.268 223.421 292.388 222.765 291.764C222.109 291.14 221.309 290.836 220.349 290.836C219.085 290.836 218.173 291.316 217.629 292.276V291.06H216.125V299.636H217.661ZM233.984 295.188C233.984 293.86 233.6 292.804 232.816 292.02C232.048 291.236 231.056 290.852 229.84 290.852C228.56 290.852 227.52 291.268 226.704 292.116C225.904 292.964 225.504 294.02 225.504 295.316C225.504 297.54 226.848 299.828 230.08 299.828C231.504 299.828 232.912 299.284 233.76 298.628L233.104 297.46C232.32 298.036 231.136 298.42 230.112 298.42C228.32 298.42 227.36 297.428 227.104 295.972H233.936C233.968 295.556 233.984 295.3 233.984 295.188ZM227.104 294.644C227.36 293.22 228.432 292.212 229.84 292.212C231.248 292.212 232.32 293.156 232.4 294.644H227.104Z" fill="white"/>
<rect x="1" y="-1" width="108" height="108" rx="27" transform="matrix(1 0 0 -1 302.047 108.53)" stroke="white" stroke-width="2"/>
<path opacity="0.34" d="M347.39 55.5314L353.545 61.7123L365.881 49.3506" stroke="white" stroke-width="5" stroke-linecap="round" stroke-linejoin="round"/>
<path d="M353.443 31.1395C355.205 29.6326 358.091 29.6326 359.879 31.1395L363.915 34.613C364.681 35.277 366.111 35.8134 367.133 35.8134H371.475C374.182 35.8134 376.404 38.0354 376.404 40.7428V45.0847C376.404 46.0808 376.94 47.5366 377.605 48.3028L381.078 52.3382C382.585 54.1006 382.585 56.9867 381.078 58.7745L377.605 62.8099C376.94 63.5762 376.404 65.0064 376.404 66.0281V70.37C376.404 73.0773 374.182 75.2993 371.475 75.2993H367.133C366.137 75.2993 364.681 75.8357 363.915 76.4998L359.879 79.9733C358.117 81.4802 355.231 81.4802 353.443 79.9733L349.408 76.4998C348.641 75.8357 347.211 75.2993 346.189 75.2993H341.771C339.064 75.2993 336.842 73.0773 336.842 70.37V66.0025C336.842 65.0064 336.305 63.5762 335.667 62.8099L332.219 58.749C330.737 56.9867 330.737 54.1261 332.219 52.3638L335.667 48.3028C336.305 47.5366 336.842 46.1063 336.842 45.1102V40.7172C336.842 38.0099 339.064 35.7879 341.771 35.7879H346.189C347.186 35.7879 348.641 35.2515 349.408 34.5874L353.443 31.1395Z" stroke="white" stroke-width="4" stroke-linecap="round" stroke-linejoin="round"/>
<path d="M322.405 138.7H324.805V129.164H328.181V126.876H319.029V129.164H322.405V138.7ZM332.861 138.684L334.797 133.228L336.765 138.684H338.733L341.677 129.98H339.309L337.613 135.692L335.581 129.98H333.997L332.029 135.692L330.285 129.98H327.917L330.893 138.684H332.861ZM342.115 134.332C342.115 135.628 342.547 136.716 343.427 137.596C344.307 138.476 345.427 138.924 346.787 138.924C348.147 138.924 349.267 138.476 350.147 137.596C351.027 136.716 351.459 135.628 351.459 134.332C351.459 133.052 351.027 131.964 350.147 131.084C349.267 130.188 348.147 129.74 346.787 129.74C345.427 129.74 344.307 130.188 343.427 131.084C342.547 131.964 342.115 133.052 342.115 134.332ZM345.059 136.108C344.595 135.612 344.371 135.02 344.371 134.332C344.371 133.644 344.595 133.052 345.059 132.572C345.523 132.092 346.099 131.852 346.787 131.852C347.475 131.852 348.035 132.092 348.499 132.572C348.963 133.052 349.203 133.644 349.203 134.332C349.203 135.02 348.963 135.612 348.499 136.108C348.035 136.588 347.475 136.828 346.787 136.828C346.099 136.828 345.523 136.588 345.059 136.108ZM359.045 138.7H361.445V129.164H364.821V126.876H355.669V129.164H359.045V138.7ZM364.255 134.332C364.255 135.628 364.687 136.716 365.567 137.596C366.447 138.476 367.567 138.924 368.927 138.924C370.287 138.924 371.407 138.476 372.287 137.596C373.167 136.716 373.599 135.628 373.599 134.332C373.599 133.052 373.167 131.964 372.287 131.084C371.407 130.188 370.287 129.74 368.927 129.74C367.567 129.74 366.447 130.188 365.567 131.084C364.687 131.964 364.255 133.052 364.255 134.332ZM367.199 136.108C366.735 135.612 366.511 135.02 366.511 134.332C366.511 133.644 366.735 133.052 367.199 132.572C367.663 132.092 368.239 131.852 368.927 131.852C369.615 131.852 370.175 132.092 370.639 132.572C371.103 133.052 371.343 133.644 371.343 134.332C371.343 135.02 371.103 135.612 370.639 136.108C370.175 136.588 369.615 136.828 368.927 136.828C368.239 136.828 367.663 136.588 367.199 136.108ZM377.444 138.7V134.028C377.444 132.732 378.244 131.82 379.444 131.82C380.548 131.82 381.284 132.588 381.284 133.98V138.7H383.54V133.372C383.54 132.204 383.204 131.308 382.548 130.684C381.892 130.06 381.076 129.74 380.132 129.74C378.9 129.74 377.86 130.348 377.396 131.196V129.98H375.188V138.7H377.444ZM393.933 134.14C393.933 132.78 393.517 131.724 392.701 130.94C391.885 130.156 390.829 129.756 389.565 129.756C388.221 129.756 387.133 130.188 386.285 131.052C385.437 131.916 385.021 133.004 385.021 134.332C385.021 135.596 385.421 136.684 386.237 137.564C387.053 138.444 388.221 138.892 389.757 138.892C391.197 138.892 392.461 138.492 393.565 137.692L392.669 136.108C391.917 136.62 390.797 136.988 389.853 136.988C388.477 136.988 387.629 136.364 387.309 135.132H393.853C393.901 134.78 393.933 134.444 393.933 134.14ZM389.565 131.628C390.717 131.628 391.533 132.316 391.741 133.452H387.309C387.581 132.316 388.429 131.628 389.565 131.628Z" fill="white"/>
<rect x="0.75" y="-0.75" width="108.5" height="108.5" rx="27.25" transform="matrix(1 0 0 -1 301.633 269.444)" stroke="#303034" stroke-width="1.5"/>
<path d="M346.843 215.946L353.083 222.126L365.588 209.765" stroke="white" stroke-width="5" stroke-linecap="round" stroke-linejoin="round"/>
<path d="M336.124 201.131C336.124 198.424 338.377 196.202 341.121 196.202H345.6C346.636 196.202 348.086 195.665 348.863 195.027L352.953 191.579C354.766 190.072 357.691 190.072 359.452 191.579L363.543 195.027C364.319 195.665 365.795 196.202 366.831 196.202H371.232C373.976 196.202 376.229 198.424 376.229 201.131V205.473C376.229 206.495 376.773 207.925 377.42 208.691L380.915 212.727C382.443 214.514 382.443 217.401 380.915 219.137L377.42 223.173C376.773 223.939 376.229 225.369 376.229 226.391V230.733C376.229 233.44 373.976 235.662 371.232 235.662H366.831C365.795 235.662 364.345 236.199 363.568 236.837L359.478 240.285C357.665 241.792 354.74 241.792 352.979 240.285L348.888 236.837C348.112 236.199 346.636 235.662 345.626 235.662H341.121C338.377 235.662 336.124 233.44 336.124 230.733V226.365C336.124 225.369 335.607 223.913 334.959 223.173L331.464 219.112C329.962 217.349 329.962 214.489 331.464 212.727L332.914 211.041" stroke="white" stroke-width="4" stroke-linecap="round" stroke-linejoin="round"/>
<path d="M337.566 293.172C338.542 292.804 339.166 291.844 339.166 290.772C339.166 289.988 338.878 289.3 338.302 288.708C337.742 288.116 336.942 287.812 335.918 287.812H331.246V299.636H336.126C337.278 299.636 338.174 299.3 338.814 298.628C339.47 297.956 339.79 297.156 339.79 296.244C339.79 294.82 339.022 293.572 337.566 293.172ZM335.71 289.3C336.846 289.3 337.534 290.036 337.534 290.868C337.534 291.78 336.83 292.596 335.662 292.596H332.83V289.3H335.71ZM332.83 298.132V294.052H335.806C337.294 294.052 338.142 294.996 338.142 296.132C338.142 296.66 337.934 297.14 337.518 297.54C337.118 297.94 336.558 298.132 335.87 298.132H332.83ZM343.228 299.636V295.092C343.228 293.252 344.22 292.308 345.58 292.308C345.868 292.308 346.172 292.356 346.476 292.452L346.62 290.964C346.284 290.884 345.948 290.836 345.612 290.836C344.476 290.836 343.644 291.332 343.148 292.324V291.06H341.692V299.636H343.228ZM351.488 299.844C352.784 299.844 353.856 299.412 354.704 298.548C355.552 297.668 355.984 296.596 355.984 295.332C355.984 294.084 355.552 293.028 354.704 292.148C353.856 291.268 352.784 290.836 351.488 290.836C350.176 290.836 349.088 291.268 348.24 292.148C347.392 293.012 346.976 294.068 346.976 295.332C346.976 296.596 347.392 297.668 348.24 298.548C349.088 299.412 350.176 299.844 351.488 299.844ZM354.448 295.332C354.448 296.18 354.16 296.916 353.584 297.524C353.008 298.132 352.304 298.436 351.488 298.436C350.672 298.436 349.968 298.132 349.392 297.524C348.816 296.916 348.528 296.18 348.528 295.332C348.528 294.484 348.816 293.764 349.392 293.172C349.968 292.564 350.672 292.26 351.488 292.26C352.304 292.26 353.008 292.564 353.584 293.172C354.16 293.764 354.448 294.484 354.448 295.332ZM365.417 299.636L361.257 294.66L365.273 291.06H363.193L359.353 294.532V287.524H357.817V299.636H359.353V296.372L360.169 295.636L363.401 299.636H365.417ZM373.988 295.188C373.988 293.86 373.604 292.804 372.82 292.02C372.052 291.236 371.06 290.852 369.844 290.852C368.564 290.852 367.524 291.268 366.708 292.116C365.908 292.964 365.508 294.02 365.508 295.316C365.508 297.54 366.852 299.828 370.084 299.828C371.508 299.828 372.916 299.284 373.764 298.628L373.108 297.46C372.324 298.036 371.14 298.42 370.116 298.42C368.324 298.42 367.364 297.428 367.108 295.972H373.94C373.972 295.556 373.988 295.3 373.988 295.188ZM367.108 294.644C367.364 293.22 368.436 292.212 369.844 292.212C371.252 292.212 372.324 293.156 372.404 294.644H367.108ZM377.337 299.636V294.884C377.337 294.116 377.561 293.492 377.993 292.996C378.441 292.5 379.017 292.26 379.705 292.26C381.001 292.26 381.897 293.204 381.897 294.868V299.636H383.417V294.436C383.417 293.268 383.097 292.388 382.441 291.764C381.785 291.14 380.985 290.836 380.025 290.836C378.761 290.836 377.849 291.316 377.305 292.276V291.06H375.801V299.636H377.337Z" fill="#6E6E77"/>
<defs>
<radialGradient id="paint0_diamond_160:15742" cx="0" cy="0" r="1" gradientUnits="userSpaceOnUse" gradientTransform="translate(9.39698 176.149) rotate(-51.8273) scale(224.064 701.116)">
<stop stop-color="#D3DDEB"/>
<stop offset="1" stop-color="#F9F9F9" stop-opacity="0"/>
</radialGradient>
</defs>
</svg>
