<svg width="504" height="504" viewBox="0 0 504 504" fill="none" xmlns="http://www.w3.org/2000/svg">
<g opacity="0.1">
<rect x="1" y="1" width="501.939" height="501.939" rx="21" stroke="white" stroke-width="2"/>
<path d="M63.777 0.000488281V503.94M21.9563 0.000488281V503.94M84.6874 0.000488281V503.94M42.8667 0.000488281V503.94M147.418 0.000488281V503.94M105.598 0.000488281V503.94M168.329 0.000488281V503.94M126.508 0.000488281V503.94M231.06 0.000488281V503.94M189.239 0.000488281V503.94M251.97 0.000488281V503.94M210.149 0.000488281V503.94M314.701 0.000488281V503.94M272.881 0.000488281V503.94M335.612 0.000488281V503.94M293.791 0.000488281V503.94M398.343 0.000488281V503.94M356.522 0.000488281V503.94M419.253 0.000488281V503.94M377.432 0.000488281V503.94M481.984 0.000488281V503.94M440.163 0.000488281V503.94M461.074 0.000488281V503.94" stroke="white" stroke-width="2" stroke-miterlimit="1"/>
<path d="M503.94 63.7772H0.000488281M503.94 21.9565H0.000488281M503.94 84.6876H0.000488281M503.94 42.8669H0.000488281M503.94 147.419H0.000488281M503.94 105.598H0.000488281M503.94 168.329H0.000488281M503.94 126.508H0.000488281M503.94 231.06H0.000488281M503.94 189.239H0.000488281M503.94 251.97H0.000488281M503.94 210.15H0.000488281M503.94 314.701H0.000488281M503.94 272.881H0.000488281M503.94 335.612H0.000488281M503.94 293.791H0.000488281M503.94 398.343H0.000488281M503.94 356.522H0.000488281M503.94 419.253H0.000488281M503.94 377.433H0.000488281M503.94 481.984H0.000488281M503.94 440.164H0.000488281M503.94 461.074H0.000488281" stroke="white" stroke-width="2"/>
</g>
<rect x="105.245" y="105.967" width="292.95" height="292.95" stroke="#2C7CF4" stroke-width="2"/>
<path d="M109.824 104.647C109.121 102.065 106.458 100.542 103.877 101.245C101.295 101.948 99.7715 104.61 100.474 107.192C101.177 109.774 103.84 111.297 106.421 110.594C109.003 109.892 110.526 107.229 109.824 104.647Z" fill="white" stroke="#2C7CF4" stroke-width="1.6547"/>
<path d="M109.824 397.098C109.121 394.516 106.458 392.993 103.877 393.696C101.295 394.398 99.7715 397.061 100.474 399.643C101.177 402.224 103.84 403.748 106.421 403.045C109.003 402.342 110.526 399.68 109.824 397.098Z" fill="white" stroke="#2C7CF4" stroke-width="1.6547"/>
<path d="M403.871 104.648C403.168 102.066 400.505 100.543 397.924 101.246C395.342 101.949 393.819 104.611 394.521 107.193C395.224 109.775 397.887 111.298 400.468 110.595C403.05 109.893 404.573 107.23 403.871 104.648Z" fill="white" stroke="#2C7CF4" stroke-width="1.6547"/>
<path d="M402.917 397.097C402.214 394.516 399.552 392.992 396.97 393.695C394.388 394.398 392.865 397.06 393.568 399.642C394.27 402.224 396.933 403.747 399.515 403.045C402.097 402.342 403.62 399.679 402.917 397.097Z" fill="white" stroke="#2C7CF4" stroke-width="1.6547"/>
<path opacity="0.34" d="M207.996 252.479L237.614 282.219L296.973 222.738" stroke="white" stroke-width="23" stroke-linecap="round" stroke-linejoin="round"/>
<path d="M237.122 135.11C245.602 127.859 259.489 127.859 268.092 135.11L287.51 151.824C291.196 155.019 298.079 157.6 302.994 157.6H323.887C336.914 157.6 347.606 168.292 347.606 181.319V202.211C347.606 207.004 350.186 214.009 353.382 217.696L370.096 237.114C377.346 245.593 377.346 259.481 370.096 268.083L353.382 287.501C350.186 291.188 347.606 298.07 347.606 302.986V323.878C347.606 336.905 336.914 347.597 323.887 347.597H302.994C298.201 347.597 291.196 350.178 287.51 353.373L268.092 370.087C259.612 377.338 245.725 377.338 237.122 370.087L217.705 353.373C214.018 350.178 207.136 347.597 202.22 347.597H180.959C167.932 347.597 157.24 336.905 157.24 323.878V302.863C157.24 298.07 154.659 291.188 151.587 287.501L134.996 267.961C127.868 259.481 127.868 245.716 134.996 237.237L151.587 217.696C154.659 214.009 157.24 207.127 157.24 202.334V181.196C157.24 168.169 167.932 157.477 180.959 157.477H202.22C207.013 157.477 214.018 154.896 217.705 151.701L237.122 135.11Z" stroke="white" stroke-width="23" stroke-linecap="round" stroke-linejoin="round"/>
<path d="M48.4123 60.8501H51.7243V46.2821H56.8363V43.1141H43.3003V46.2821H48.4123V60.8501ZM63.4573 60.8261L66.5053 52.3061L69.6013 60.8261H72.3133L76.6813 47.8181H73.4173L70.7533 56.6501L67.5853 47.8181H65.4013L62.3053 56.6501L59.5693 47.8181H56.3053L60.7453 60.8261H63.4573ZM77.4142 54.3221C77.4142 56.2661 78.0622 57.8981 79.3582 59.2181C80.6782 60.5381 82.3342 61.1861 84.3742 61.1861C86.4142 61.1861 88.0702 60.5381 89.3662 59.2181C90.6862 57.8981 91.3342 56.2661 91.3342 54.3221C91.3342 52.4021 90.6862 50.7941 89.3662 49.4741C88.0702 48.1541 86.4142 47.4821 84.3742 47.4821C82.3342 47.4821 80.6782 48.1541 79.3582 49.4741C78.0622 50.7941 77.4142 52.4021 77.4142 54.3221ZM88.1902 54.3221C88.1902 55.4261 87.8302 56.3621 87.0862 57.1301C86.3422 57.8981 85.4542 58.2821 84.3742 58.2821C83.2942 58.2821 82.4062 57.8981 81.6622 57.1301C80.9182 56.3621 80.5582 55.4261 80.5582 54.3221C80.5582 53.2421 80.9182 52.3061 81.6622 51.5381C82.4062 50.7701 83.2942 50.3861 84.3742 50.3861C85.4542 50.3861 86.3422 50.7701 87.0862 51.5381C87.8302 52.3061 88.1902 53.2421 88.1902 54.3221ZM102.787 60.8501H106.099V46.2821H111.211V43.1141H97.6753V46.2821H102.787V60.8501ZM110.414 54.3221C110.414 56.2661 111.062 57.8981 112.358 59.2181C113.678 60.5381 115.334 61.1861 117.374 61.1861C119.414 61.1861 121.07 60.5381 122.366 59.2181C123.686 57.8981 124.334 56.2661 124.334 54.3221C124.334 52.4021 123.686 50.7941 122.366 49.4741C121.07 48.1541 119.414 47.4821 117.374 47.4821C115.334 47.4821 113.678 48.1541 112.358 49.4741C111.062 50.7941 110.414 52.4021 110.414 54.3221ZM121.19 54.3221C121.19 55.4261 120.83 56.3621 120.086 57.1301C119.342 57.8981 118.454 58.2821 117.374 58.2821C116.294 58.2821 115.406 57.8981 114.662 57.1301C113.918 56.3621 113.558 55.4261 113.558 54.3221C113.558 53.2421 113.918 52.3061 114.662 51.5381C115.406 50.7701 116.294 50.3861 117.374 50.3861C118.454 50.3861 119.342 50.7701 120.086 51.5381C120.83 52.3061 121.19 53.2421 121.19 54.3221ZM129.91 60.8501V53.8181C129.91 51.7781 131.23 50.3381 133.078 50.3381C134.806 50.3381 135.934 51.5861 135.934 53.7701V60.8501H139.078V52.9061C139.078 51.1541 138.574 49.8341 137.59 48.8981C136.606 47.9621 135.382 47.4821 133.966 47.4821C132.07 47.4821 130.558 48.3221 129.862 49.6421V47.8181H126.79V60.8501H129.91ZM154.6 54.0581C154.6 52.0421 154 50.4581 152.776 49.2821C151.576 48.1061 150.04 47.5061 148.144 47.5061C146.152 47.5061 144.52 48.1541 143.248 49.4501C142 50.7221 141.376 52.3541 141.376 54.3221C141.376 57.7781 143.536 61.1381 148.432 61.1381C150.592 61.1381 152.488 60.5381 154.096 59.3381L152.848 57.1061C151.576 57.9941 150.136 58.4501 148.552 58.4501C146.32 58.4501 144.976 57.2501 144.568 55.4501H154.504C154.576 54.8741 154.6 54.4181 154.6 54.0581ZM148.144 50.1221C149.944 50.1221 151.264 51.2501 151.528 53.0741H144.568C144.976 51.2501 146.32 50.1221 148.144 50.1221Z" fill="white" fill-opacity="0.6"/>
</svg>
