<svg width="480" height="481" viewBox="0 0 480 481" fill="none" xmlns="http://www.w3.org/2000/svg">
<path opacity="0.2" d="M1.56905 98.9125V101.162H24.9438C9.73544 117.362 0.445312 139.112 0.445312 163.037V390.287C0.445312 414.212 9.81017 435.962 25.0193 452.162H1.56905V454.412H24.719L0.445312 478.712L2.01813 480.362L26.4426 455.912V479.462H28.6901V455.912C44.8727 471.212 66.7494 480.662 90.7241 480.662H316.983C340.958 480.662 362.759 471.287 378.942 455.912V479.462H381.19V455.837L405.764 480.362L407.337 478.712L383.063 454.412H406.138V452.162H382.688C397.972 435.962 407.262 414.212 407.262 390.287V163.037C407.262 139.112 397.972 117.362 382.763 101.162H406.138V98.9125H382.988L407.337 74.6123L405.764 73.0376L381.265 97.5623V73.7124H379.017V97.412C362.835 82.1124 341.033 72.6621 317.058 72.6621H90.7989C66.7494 72.6621 44.9475 82.1124 28.7648 97.4875V73.7124H26.5173V97.412L2.09354 72.9621L0.520051 74.5375L24.719 98.9125H1.56905ZM405.014 275.537H381.19V204.587H405.014V275.537ZM152.308 226.637L201.157 275.537L132.38 275.537V273.662C133.054 255.437 140.546 238.937 152.308 226.637ZM132.38 257.912V206.612L150.735 224.987C142.044 234.137 135.601 245.387 132.38 257.912ZM206.626 277.787H275.477C275.252 296.762 267.686 313.937 255.473 326.687L206.626 277.787ZM206.626 275.537L255.473 226.637C267.686 239.387 275.252 256.562 275.477 275.537H206.626ZM204.978 273.962V204.662C223.932 204.962 241.164 212.687 253.825 225.062L204.978 273.962ZM202.73 273.962L153.882 225.062C166.543 212.687 183.775 204.962 202.73 204.662V273.962ZM132.38 277.787H201.157L152.308 326.687C140.471 314.387 133.054 297.887 132.38 279.737V277.787ZM150.735 328.262L132.38 346.637V295.412C135.601 307.937 142.044 319.187 150.735 328.262ZM152.308 329.837C161.374 338.687 172.762 345.287 185.348 348.587H133.578L152.308 329.837ZM153.957 328.262L202.805 279.362V348.587H200.257C182.277 347.687 166.019 340.037 153.957 328.262ZM204.978 348.587V279.362L253.825 328.262C241.763 340.037 225.506 347.687 207.525 348.587H204.978ZM255.399 329.837L274.128 348.587H222.359C235.02 345.287 246.334 338.762 255.399 329.837ZM257.047 328.262C265.887 319.112 272.331 307.637 275.553 294.962V346.787L257.047 328.262ZM257.047 225.062L275.477 206.537V258.362C272.331 245.687 265.813 234.212 257.047 225.062ZM255.399 223.487C246.109 214.412 234.496 207.812 221.535 204.587H274.279L255.399 223.487ZM152.308 223.487L133.429 204.587H186.173C173.211 207.812 161.599 214.412 152.308 223.487ZM130.132 273.587C130.132 274.262 130.057 274.862 130.057 275.537H102.187C102.412 248.762 112.975 224.387 130.132 206.312V273.587ZM130.132 277.787C130.132 278.462 130.132 279.062 130.207 279.737V347.012C113.05 328.937 102.487 304.562 102.262 277.787H130.132ZM200.182 350.837C201.081 350.912 201.905 350.912 202.805 350.912V378.812C176.208 378.512 152.009 367.937 133.953 350.837H200.182ZM204.978 350.912C205.877 350.912 206.701 350.912 207.599 350.837H273.829C255.849 367.937 231.649 378.512 204.978 378.812V350.912ZM277.725 277.787H305.52C305.295 304.487 294.807 328.787 277.725 346.862V277.787ZM277.725 275.537V206.462C294.807 224.537 305.295 248.837 305.52 275.537H277.725ZM204.978 202.337V174.587C231.499 174.887 255.624 185.387 273.604 202.337H204.978ZM202.73 202.337H134.103C152.084 185.387 176.208 174.812 202.73 174.587V202.337ZM100.014 275.537H46.9707C47.1202 249.962 53.3387 225.887 64.2771 204.587H128.709C111.102 223.037 100.164 248.087 100.014 275.537ZM100.014 277.787C100.239 305.162 111.027 330.062 128.559 348.587H64.2024C53.264 327.362 47.1202 303.287 46.9707 277.787H100.014ZM128.184 350.837L91.9226 387.137C81.434 376.412 72.4435 364.187 65.2514 350.837H128.184ZM130.132 352.037V415.712C116.647 408.512 104.36 399.362 93.5708 388.712L130.132 352.037ZM132.38 352.412C150.735 369.887 175.534 380.687 202.73 380.987V434.162C177.407 434.012 153.507 427.787 132.38 416.912V352.412ZM204.978 381.062C232.248 380.762 257.047 369.887 275.477 352.337V416.837C254.275 427.712 230.375 433.937 204.978 434.162V381.062ZM277.725 352.187L314.211 388.712C303.422 399.362 291.211 408.437 277.725 415.637V352.187ZM279.523 350.837H342.456C335.338 364.187 326.348 376.412 315.785 387.137L279.523 350.837ZM279.223 348.587C296.755 330.137 307.543 305.162 307.768 277.787H360.811C360.662 303.287 354.518 327.287 343.58 348.587H279.223ZM307.768 275.537C307.543 248.087 296.68 223.037 279.073 204.587H343.505C354.443 225.887 360.737 250.037 360.811 275.537H307.768ZM279.748 202.337L315.785 166.262C326.273 176.912 335.189 189.062 342.306 202.337H279.748ZM277.725 201.137V137.687C291.136 144.887 303.422 153.962 314.211 164.612L277.725 201.137ZM275.477 200.987C257.047 183.437 232.248 172.562 204.978 172.262V119.162C230.375 119.312 254.275 125.537 275.477 136.487V200.987ZM202.73 172.262C175.534 172.562 150.735 183.362 132.38 200.837V136.412C153.507 125.537 177.407 119.312 202.73 119.162V172.262ZM130.132 201.287L93.5708 164.687C104.36 154.037 116.647 144.887 130.132 137.687V201.287ZM128.034 202.337H65.4756C72.5936 189.062 81.5835 176.912 91.9973 166.262L128.034 202.337ZM62.9285 202.337H28.6901V102.887L90.4245 164.612C79.4862 175.712 70.196 188.462 62.9285 202.337ZM61.73 204.587C50.9411 225.962 44.798 250.037 44.6478 275.537H28.6901V204.587H61.73ZM26.4426 275.537H2.69277V204.587H26.4426V275.537ZM2.69277 277.787H26.4426V348.587H2.69277V277.787ZM28.6901 277.787H44.7233C44.8727 303.212 50.9411 327.287 61.6546 348.587H28.6901V277.787ZM62.779 350.837C70.1206 364.787 79.4107 377.537 90.3491 388.712L28.6901 450.437V350.837H62.779ZM91.9973 390.287C103.236 401.387 116.047 410.837 130.132 418.262V452.162L30.1134 452.162L91.9973 390.287ZM132.38 419.387C153.582 430.112 177.482 436.187 202.73 436.412V452.162H132.38V419.387ZM202.73 454.412V478.412H132.38V454.412H202.73ZM204.978 454.412H275.477V478.412H204.978V454.412ZM204.978 452.162V436.412C230.3 436.262 254.2 430.112 275.477 419.387V452.162H204.978ZM277.725 418.187C291.81 410.762 304.621 401.387 315.785 390.287L377.594 452.162H277.725V418.187ZM317.357 388.712C328.296 377.537 337.661 364.787 344.928 350.837H379.017V450.362L317.357 388.712ZM346.127 348.587C356.841 327.287 362.984 303.212 363.059 277.787H379.017V348.587H346.127ZM381.265 277.787H405.014V348.587H381.19V277.787H381.265ZM379.017 275.537H363.134C362.984 250.037 356.916 225.962 346.052 204.587H379.017V275.537ZM344.853 202.337C337.586 188.462 328.296 175.787 317.357 164.687L378.942 103.037V202.337H344.853ZM315.785 163.037C304.621 151.937 291.81 142.487 277.725 135.137V101.162H377.594L315.785 163.037ZM275.477 133.937C254.275 123.212 230.3 117.062 204.978 116.913V101.162H275.477V133.937ZM204.978 98.9125V74.9123H275.477V98.9125H204.978ZM202.73 98.9125H132.38V74.9123H202.73V98.9125ZM202.73 101.162V116.913C177.482 117.062 153.582 123.212 132.38 133.937V101.162H202.73ZM130.132 135.062C116.047 142.487 103.161 151.937 91.9973 163.037L30.1881 101.162H130.132V135.062ZM26.4426 102.887V202.337H2.69277V163.037C2.69277 139.787 11.758 118.712 26.4426 102.887ZM2.69277 350.837H26.4426V450.437C11.758 434.687 2.69277 413.537 2.69277 390.287V350.837ZM30.4884 454.412H130.132V478.412H90.7241C67.4241 478.412 46.2213 469.262 30.4884 454.412ZM277.725 478.412V454.412H377.294C361.561 469.262 340.283 478.412 316.983 478.412H277.725ZM381.265 450.512V350.837H405.014V390.287C405.014 413.537 396.024 434.762 381.265 450.512ZM405.014 202.337H381.19V102.812C395.949 118.562 405.014 139.787 405.014 163.037V202.337ZM377.369 98.9125H277.725V74.9123H316.983C340.359 74.9123 361.561 84.0619 377.369 98.9125ZM130.132 74.9123V98.9125H30.413C46.1466 84.0619 67.4241 74.9123 90.7241 74.9123H130.132Z" fill="white"/>
<path d="M204.444 459.581C185.914 459.581 167.554 454.141 153.104 443.431L80.0036 388.861C60.6236 374.411 45.4937 344.321 45.4937 320.181V193.701C45.4937 167.521 64.7036 139.641 89.3536 130.461L174.184 98.6711C191.014 92.3811 217.534 92.3811 234.364 98.6711L319.364 130.461C344.014 139.641 363.224 167.521 363.224 193.701V320.011C363.224 344.151 348.094 374.241 328.714 388.691L255.614 443.261C241.334 454.141 222.974 459.581 204.444 459.581ZM183.194 122.641L98.3636 154.431C83.7436 159.871 70.9936 178.231 70.9936 193.871V320.181C70.9936 336.331 82.3836 358.941 95.1336 368.461L168.234 423.031C187.784 437.651 220.934 437.651 240.484 423.031L313.584 368.461C326.504 358.771 337.724 336.161 337.724 320.181V193.701C337.724 178.231 324.974 159.871 310.354 154.261L225.524 122.471C214.304 118.391 194.584 118.391 183.194 122.641Z" fill="white"/>
<path d="M204.445 297.912C178.605 297.912 157.695 277.002 157.695 251.162C157.695 225.322 178.605 204.412 204.445 204.412C230.285 204.412 251.195 225.322 251.195 251.162C251.195 277.002 230.285 297.912 204.445 297.912ZM204.445 229.912C192.715 229.912 183.195 239.432 183.195 251.162C183.195 262.892 192.715 272.412 204.445 272.412C216.175 272.412 225.695 262.892 225.695 251.162C225.695 239.432 216.175 229.912 204.445 229.912Z" fill="white"/>
<path d="M204.445 348.912C197.475 348.912 191.695 343.132 191.695 336.162V285.162C191.695 278.192 197.475 272.412 204.445 272.412C211.415 272.412 217.195 278.192 217.195 285.162V336.162C217.195 343.132 211.415 348.912 204.445 348.912Z" fill="white"/>
<path d="M193.383 16.8833H185.519V15.7868L189.451 11.4176C189.803 11.0274 190.096 10.6811 190.333 10.3788C190.569 10.0766 190.759 9.79906 190.902 9.54623C191.044 9.28791 191.147 9.04614 191.207 8.82075C191.267 8.58995 191.298 8.35363 191.298 8.1118C191.298 7.81502 191.248 7.53748 191.149 7.27917C191.055 7.01537 190.915 6.78729 190.729 6.59493C190.547 6.40258 190.324 6.25144 190.061 6.14152C189.803 6.0261 189.509 5.96839 189.179 5.96839C188.778 5.96839 188.428 6.0261 188.132 6.14152C187.841 6.25693 187.596 6.42181 187.399 6.63615C187.206 6.845 187.06 7.10055 186.961 7.40283C186.868 7.70511 186.821 8.04311 186.821 8.41682H185.288C185.288 7.9112 185.376 7.43581 185.551 6.99064C185.727 6.53997 185.98 6.14701 186.31 5.81177C186.646 5.47651 187.052 5.20997 187.53 5.01211C188.014 4.81426 188.563 4.71533 189.179 4.71533C189.745 4.71533 190.254 4.80052 190.704 4.97089C191.16 5.13577 191.545 5.36659 191.858 5.66338C192.171 5.96016 192.41 6.3119 192.575 6.71859C192.745 7.12529 192.831 7.56771 192.831 8.04585C192.831 8.40309 192.771 8.7576 192.649 9.10929C192.529 9.45556 192.364 9.79906 192.155 10.1398C191.952 10.4806 191.712 10.8186 191.438 11.1538C191.169 11.4835 190.882 11.8133 190.58 12.1431L187.357 15.6384H193.383V16.8833Z" fill="white"/>
<path d="M202.346 12.8522H204.019V14.097H202.346V16.8834H200.821V14.097H195.347V13.1984L200.722 4.88037H202.346V12.8522ZM197.037 12.8522H200.821V6.90837L200.573 7.37002L197.037 12.8522Z" fill="white"/>
<path d="M213.829 12.5226C213.829 13.1601 213.752 13.7564 213.598 14.3114C213.444 14.8611 213.219 15.3392 212.922 15.7459C212.625 16.1526 212.257 16.4713 211.817 16.7022C211.383 16.933 210.886 17.0484 210.325 17.0484C209.781 17.0484 209.3 16.9605 208.883 16.7846C208.471 16.6088 208.116 16.3559 207.819 16.0262V20.313H206.293V7.96371H207.687L207.761 8.93644C208.058 8.5683 208.415 8.28797 208.833 8.09561C209.257 7.89776 209.745 7.79883 210.301 7.79883C210.872 7.79883 211.378 7.9115 211.817 8.13683C212.257 8.36216 212.625 8.67542 212.922 9.07666C213.219 9.47781 213.444 9.95873 213.598 10.5193C213.752 11.0744 213.829 11.6845 213.829 12.3494V12.5226ZM212.304 12.3494C212.304 11.9153 212.254 11.5031 212.155 11.1129C212.062 10.7171 211.913 10.3709 211.71 10.0741C211.512 9.77183 211.26 9.53276 210.952 9.35692C210.643 9.18108 210.275 9.09312 209.847 9.09312C209.358 9.09312 208.946 9.20852 208.611 9.4394C208.281 9.66471 208.016 9.95595 207.819 10.3132V14.6083C208.016 14.96 208.281 15.2486 208.611 15.4739C208.94 15.6937 209.358 15.8036 209.863 15.8036C210.286 15.8036 210.652 15.7156 210.96 15.5398C211.267 15.3585 211.521 15.1166 211.718 14.8143C211.916 14.5121 212.062 14.1631 212.155 13.7674C212.254 13.3717 212.304 12.9567 212.304 12.5226V12.3494Z" fill="white"/>
<path d="M220.127 11.2696L222.509 7.96387H224.299L220.976 12.3743L224.389 16.8837H222.625L220.16 13.4873L217.695 16.8837H215.915L219.328 12.3743L216.005 7.96387H217.769L220.127 11.2696Z" fill="white"/>
<path d="M1 25.3251V0H2.68834V11.8184H162.237V13.5067H2.68834V25.3251H1Z" fill="#3F3F40"/>
<path d="M406.202 25.3251V13.5067H246.654V11.8184H406.202V0H407.891V25.3251H406.202Z" fill="#3F3F40"/>
<path d="M463.116 265.6L463.116 257.735L464.213 257.735L468.582 261.667C468.972 262.02 469.319 262.313 469.621 262.55C469.923 262.786 470.201 262.976 470.454 263.119C470.712 263.261 470.954 263.363 471.179 263.423C471.41 263.484 471.646 263.515 471.888 263.515C472.185 263.515 472.462 263.465 472.721 263.366C472.984 263.272 473.212 263.132 473.405 262.946C473.597 262.764 473.748 262.541 473.858 262.278C473.974 262.02 474.031 261.726 474.031 261.396C474.031 260.995 473.974 260.645 473.858 260.349C473.743 260.058 473.578 259.813 473.364 259.615C473.155 259.423 472.899 259.277 472.597 259.178C472.295 259.084 471.957 259.038 471.583 259.038L471.583 257.505C472.089 257.505 472.564 257.593 473.009 257.768C473.46 257.944 473.853 258.197 474.188 258.527C474.523 258.862 474.79 259.268 474.988 259.747C475.185 260.231 475.284 260.78 475.284 261.396C475.284 261.962 475.199 262.47 475.029 262.921C474.864 263.377 474.633 263.762 474.336 264.075C474.04 264.388 473.688 264.627 473.281 264.792C472.874 264.962 472.432 265.048 471.954 265.048C471.597 265.048 471.242 264.988 470.89 264.866C470.544 264.745 470.201 264.581 469.86 264.371C469.519 264.169 469.181 263.929 468.846 263.655C468.516 263.385 468.186 263.099 467.857 262.797L464.361 259.574L464.361 265.6L463.116 265.6Z" fill="white"/>
<path d="M467.148 274.563L467.148 276.236L465.903 276.236L465.903 274.563L463.116 274.563L463.116 273.037L465.903 273.037L465.903 267.563L466.801 267.563L475.119 272.938L475.119 274.563L467.148 274.563ZM467.148 269.254L467.148 273.037L473.091 273.037L472.63 272.79L467.148 269.254Z" fill="white"/>
<path d="M467.477 286.045C466.84 286.045 466.244 285.969 465.689 285.815C465.139 285.661 464.661 285.436 464.254 285.139C463.847 284.842 463.529 284.473 463.298 284.034C463.067 283.6 462.952 283.103 462.952 282.542C462.952 281.998 463.039 281.517 463.215 281.099C463.391 280.687 463.644 280.333 463.974 280.036L459.687 280.036L459.687 278.51L472.036 278.51L472.036 279.904L471.064 279.978C471.432 280.275 471.712 280.632 471.904 281.05C472.102 281.473 472.201 281.962 472.201 282.518C472.201 283.089 472.089 283.595 471.863 284.034C471.638 284.473 471.325 284.842 470.923 285.139C470.522 285.436 470.041 285.661 469.481 285.815C468.926 285.969 468.316 286.045 467.651 286.045L467.477 286.045ZM467.651 284.521C468.085 284.521 468.497 284.471 468.887 284.372C469.283 284.278 469.629 284.13 469.926 283.926C470.228 283.729 470.467 283.477 470.643 283.168C470.819 282.86 470.907 282.492 470.907 282.063C470.907 281.575 470.791 281.163 470.561 280.828C470.335 280.497 470.044 280.233 469.687 280.036L465.392 280.036C465.04 280.233 464.751 280.497 464.526 280.828C464.306 281.157 464.196 281.575 464.196 282.08C464.196 282.503 464.284 282.869 464.46 283.177C464.642 283.484 464.883 283.737 465.186 283.935C465.488 284.133 465.837 284.278 466.233 284.372C466.628 284.471 467.043 284.521 467.477 284.521L467.651 284.521Z" fill="white"/>
<path d="M468.73 292.344L472.036 294.726L472.036 296.516L467.626 293.193L463.116 296.606L463.116 294.842L466.513 292.377L463.116 289.912L463.116 288.131L467.626 291.544L472.036 288.222L472.036 289.986L468.73 292.344Z" fill="white"/>
<path d="M454.675 73.2168L480 73.2168L480 74.9051L468.182 74.9051L468.182 234.454L466.493 234.454L466.493 74.9051L454.675 74.9051L454.675 73.2168Z" fill="#3F3F40"/>
<path d="M454.675 478.419L466.493 478.419L466.493 318.871L468.182 318.871L468.182 478.419L480 478.419L480 480.108L454.675 480.108L454.675 478.419Z" fill="#3F3F40"/>
</svg>
