<?xml version="1.0" encoding="utf-8"?>
<!-- Generator: Adobe Illustrator 25.3.0, SVG Export Plug-In . SVG Version: 6.00 Build 0)  -->
<svg version="1.1" id="Layer_1" xmlns="http://www.w3.org/2000/svg" xmlns:xlink="http://www.w3.org/1999/xlink" x="0px" y="0px"
	 viewBox="0 0 400 400" style="enable-background:new 0 0 400 400;" xml:space="preserve">
<path d="M194.4,69.4c-13.1,0-23.8,4.2-32.1,12.6c-2.4,2.4-3.7,5.9-5.4,9v52.2c0.3,0.5,0.5,1.2,0.8,1.7c5.2,6.9,11.8,12.4,19.9,16.4
	c8,4,19,8.4,32.9,13.1c12.7,4.4,23.3,8.8,32.7,13.2v-74.3c-1.3-11.7-5.7-21.9-13.9-30.3C220.5,74,208.8,69.4,194.4,69.4z"/>
<path d="M201.2,331.1c15.8,0,28.1-4.8,36.9-14.4c2.2-2.4,3.4-5.6,5-8.3v-57.6c0,0,0,0,0,0c-5.5-7.4-12.3-13.1-20.5-17.2
	c-8.2-4-19.5-8.4-33.9-13.1c-12.4-4.1-22.7-8.3-31.9-12.6v93.6c2.3,5.5,5.1,10.6,8.9,14.9C174.1,326.2,185.9,331.1,201.2,331.1z"/>
<path d="M199.2,20.4c-0.1,0-0.1,0-0.2,0h0.5C199.4,20.4,199.3,20.4,199.2,20.4z"/>
<g>
	<path d="M199.5,30.4c12.2,0,23.3,2.1,33.7,6.4V73c-10.3-9-23.3-13.5-38.8-13.5c-10.3,0-19.6,2.2-27.6,6.7V36.2
		c10.5-3.9,21.1-5.8,32.2-5.8H199.5 M199.5,20.4H199c-15.7,0-29.5,3.5-42.2,9.1V91c1.7-3.1,3-6.5,5.4-9c8.3-8.4,19-12.6,32.1-12.6
		c14.5,0,26.1,4.6,34.9,13.6c8.2,8.4,12.6,18.7,13.9,30.3v-83C230.4,24,216,20.5,199.5,20.4L199.5,20.4z"/>
</g>
<path d="M238.2,316.7c-8.8,9.6-21.1,14.4-36.9,14.4c-15.3,0-27.1-4.9-35.5-14.7c-3.8-4.4-6.6-9.5-8.9-14.9v68.1
	c13.5,6.3,28.1,10,44.4,10c15.8,0,29.5-3.9,42-10v-61.2C241.5,311.1,240.4,314.3,238.2,316.7z"/>
</svg>
